<?xml version="1.0" encoding="UTF-8" standalone="no"?>
<!-- Created with Inkscape (http://www.inkscape.org/) -->

<svg
   xmlns:dc="http://purl.org/dc/elements/1.1/"
   xmlns:cc="http://creativecommons.org/ns#"
   xmlns:rdf="http://www.w3.org/1999/02/22-rdf-syntax-ns#"
   xmlns:svg="http://www.w3.org/2000/svg"
   xmlns="http://www.w3.org/2000/svg"
   xmlns:xlink="http://www.w3.org/1999/xlink"
   xmlns:sodipodi="http://sodipodi.sourceforge.net/DTD/sodipodi-0.dtd"
   xmlns:inkscape="http://www.inkscape.org/namespaces/inkscape"
   id="svg3036"
   version="1.1"
   inkscape:version="0.48.4 r9939"
   width="1072"
   height="1264"
   sodipodi:docname="can.png">
  <metadata
     id="metadata3042">
    <rdf:RDF>
      <cc:Work
         rdf:about="">
        <dc:format>image/svg+xml</dc:format>
        <dc:type
           rdf:resource="http://purl.org/dc/dcmitype/StillImage" />
        <dc:title></dc:title>
      </cc:Work>
    </rdf:RDF>
  </metadata>
  <defs
     id="defs3040" />
  <sodipodi:namedview
     pagecolor="#ffffff"
     bordercolor="#666666"
     borderopacity="1"
     objecttolerance="10"
     gridtolerance="10"
     guidetolerance="10"
     inkscape:pageopacity="0"
     inkscape:pageshadow="2"
     inkscape:window-width="1317"
     inkscape:window-height="744"
     id="namedview3038"
     showgrid="false"
     inkscape:zoom="0.45411392"
     inkscape:cx="536"
     inkscape:cy="632"
     inkscape:window-x="49"
     inkscape:window-y="24"
     inkscape:window-maximized="1"
     inkscape:current-layer="svg3036" />
  <image
     width="1072"
     height="1264"
     xlink:href="file:///home/glg72/Desktop/can.png"
     id="image3044"
     x="0"
     y="0" />
  <path
     style="fill:#08080b"
     d="m 567.83507,1179.4487 c -0.40412,-0.6539 -5.91416,-0.9767 -14.85116,-0.87 -19.39165,0.2315 -46.38687,-1.0501 -50.95615,-2.4191 -2.88626,-0.8647 -4.66074,-0.8281 -7.64874,0.1581 -2.13983,0.7062 -4.40455,0.9663 -5.03271,0.5781 -1.8796,-1.1616 -12.971,-2.6909 -22.57105,-3.1121 -4.95,-0.2172 -11.925,-0.8627 -15.5,-1.4346 -9.81,-1.5691 -15.11607,-2.0798 -31.25375,-3.0082 -8.11456,-0.4668 -17.11456,-1.3251 -20,-1.9072 -2.88544,-0.5821 -12.4129,-1.7611 -21.17213,-2.6198 -8.75924,-0.8588 -16.40924,-1.8655 -17,-2.2372 -0.59077,-0.3717 -3.99912,-1.0013 -7.57412,-1.3991 -3.575,-0.3978 -9.425,-1.4597 -13,-2.3598 -3.575,-0.9 -8.975,-2.0141 -12,-2.4758 -8.49731,-1.297 -11.30061,-2.1326 -13.88486,-4.1387 -1.31167,-1.0183 -3.19761,-1.8514 -4.19098,-1.8514 -0.99337,0 -2.08424,-0.45 -2.42416,-1 -0.33992,-0.55 -1.66138,-1 -2.93657,-1 -1.2752,0 -2.90604,-0.7079 -3.62409,-1.5731 -1.86162,-2.2431 -8.43958,-5.4269 -11.21241,-5.4269 -1.30879,0 -3.62808,-1.3312 -5.22693,-3 -1.5808,-1.65 -3.3032,-3 -3.82756,-3 -1.15927,0 -9.58952,-3.9871 -11.67244,-5.5205 -0.825,-0.6073 -3.525,-1.9434 -6,-2.969 -6.1237,-2.5375 -14,-10.1497 -14,-13.5305 0,-2.055 -0.81033,-2.9526 -3.89363,-4.313 -5.68162,-2.5067 -9.59874,-11.1603 -10.48669,-23.167 -0.12202,-1.65 -0.76137,-3.9829 -1.42077,-5.1843 -1.45573,-2.6521 -1.56767,-6.9698 -0.20258,-7.8134 0.63429,-0.392 0.49521,-1.5945 -0.38275,-3.3091 -2.21694,-4.3295 -2.87659,-12.3679 -1.56289,-19.0453 1.07578,-5.4681 1.01119,-6.4042 -0.61272,-8.8802 -1.33182,-2.0306 -1.87602,-5.0315 -2.04337,-11.2677 -0.43775,-16.3132 -1.47886,-26.4797 -2.94007,-28.7097 -1.62228,-2.47588 -1.9171,-5.88638 -0.58029,-6.71258 1.50655,-0.9311 0.1608,-16.7808 -1.71202,-20.1636 -0.58286,-1.0527 -1.32365,-3.9734 -1.6462,-6.4904 -0.34828,-2.7177 -1.92212,-6.6044 -3.87518,-9.5699 -2.87472,-4.3651 -3.3019,-5.864 -3.39354,-11.9071 -0.0577,-3.80238 0.24571,-7.37091 0.67417,-7.93006 0.772,-1.00749 -0.0366,-12.59757 -1.9546,-28.01664 -1.46876,-11.8075 -1.74639,-19.38474 -0.91599,-25 0.44841,-3.0322 0.32918,-5.77111 -0.30295,-6.95934 -0.5733,-1.07763 -1.0066,-5.35263 -0.96289,-9.5 0.0437,-4.14736 -0.56505,-10.60758 -1.35279,-14.35604 -0.78774,-3.74845 -1.43567,-9.82345 -1.43984,-13.5 -0.004,-3.67654 -0.5035,-10.50962 -1.10961,-15.18462 -0.60611,-4.675 -1.2511,-16.825 -1.43332,-27 -0.18221,-10.175 -0.79813,-20.975 -1.36871,-24 -0.57058,-3.025 -1.50867,-11.125 -2.08464,-18 -0.57598,-6.875 -1.73747,-19.25 -2.58109,-27.5 -0.84362,-8.25 -1.53932,-16.125 -1.54601,-17.5 -0.0182,-3.74104 -1.94757,-16.14547 -2.95525,-19 -0.48539,-1.375 -1.08717,-4.525 -1.33729,-7 -1.36857,-13.54269 -6.2245,-44.1574 -8.56516,-54 -0.58858,-2.475 -1.94311,-12.825 -3.01005,-23 -1.06695,-10.175 -2.22452,-19.625 -2.57238,-21 -0.95011,-3.75553 -3.50743,-27.9356 -3.42741,-32.40697 0.0385,-2.14883 -0.9081,-8.13938 -2.10346,-13.31232 -1.62426,-7.02903 -1.88594,-9.6928 -1.0357,-10.54303 1.6237,-1.62371 1.40527,-4.2707 -0.48164,-5.8367 -1.2941,-1.07401 -1.49842,-2.5005 -1.01736,-7.10301 0.33107,-3.16751 0.1875,-6.84919 -0.31905,-8.18151 -0.50655,-1.33232 -1.17238,-7.23964 -1.47963,-13.12737 -0.30725,-5.88774 -1.28441,-12.7939 -2.17147,-15.34703 -2.00164,-5.76111 -3.64142,-16.49886 -3.87798,-25.39424 -0.0988,-3.7137 -0.6754,-7.7637 -1.28141,-9 -1.45516,-2.96863 -3.01867,-13.0625 -4.71038,-30.40986 -0.75959,-7.78912 -2.02593,-15.43912 -2.81409,-17 -0.78816,-1.56088 -1.68979,-5.31296 -2.00363,-8.33796 -0.31383,-3.025 -1.726,-7.86029 -3.13815,-10.7451 -1.41215,-2.8848 -2.57334,-5.8098 -2.58044,-6.5 -0.007,-0.69019 -0.9071,-4.10749 -2,-7.59399 -2.23268,-7.12253 -2.61308,-17.7878 -0.81208,-22.76836 1.4778,-4.08681 -0.85619,-12.13756 -5.04228,-17.39255 -3.03035,-3.80415 -5.13274,-8.96495 -5.13274,-12.59953 0,-1.2656 -0.58638,-2.66095 -1.30307,-3.10078 -1.3747,-0.84365 -4.69261,-8.83888 -4.70309,-11.33312 -0.003,-0.80661 -0.7259,-2.81657 -1.60558,-4.46657 -2.97786,-5.58551 -8.41516,-23.7691 -8.52214,-28.5 -0.0187,-0.825 -0.28038,-2.175 -0.58161,-3 -0.30123,-0.825 -0.66632,-3.75 -0.81129,-6.5 -1.03443,-19.62137 -1.77558,-23.62272 -6.11244,-33 -3.72145,-8.04662 -4.3905,-14.73839 -2.93381,-29.34373 0.68892,-6.90744 7.71668,-20.41595 12.51197,-24.05006 3.22135,-2.44131 9.3768,-8.51783 17.66254,-17.43607 1.95703,-2.10642 4.8818,-4.29125 6.49949,-4.85518 1.61769,-0.56393 3.38783,-1.85977 3.93364,-2.87963 0.54582,-1.01987 2.67382,-2.63398 4.7289,-3.5869 2.05507,-0.95292 5.08649,-2.72047 6.73649,-3.9279 3.34534,-2.44801 11.72805,-6.3937 18.52864,-8.7213 2.45925,-0.84171 5.82136,-2.24061 7.47136,-3.10865 1.65,-0.86804 3.75103,-1.58103 4.66896,-1.58442 0.91793,-0.003 2.94293,-0.63689 4.5,-1.40778 5.31226,-2.63005 10.39684,-4.59838 11.87854,-4.59838 0.8138,0 2.26103,-0.38379 3.21607,-0.85286 5.96181,-2.92819 9.17424,-4.14133 12.49748,-4.71951 2.06857,-0.3599 4.00763,-1.05334 4.30901,-1.54099 0.30139,-0.48765 1.36998,-0.88664 2.37465,-0.88664 1.00467,0 3.11561,-0.67223 4.69098,-1.49384 1.57537,-0.82161 3.98931,-1.5072 5.36431,-1.52354 1.375,-0.0163 5.875,-0.97611 10,-2.13284 4.125,-1.15674 9.075,-2.32267 11,-2.59097 1.925,-0.26829 4.175,-1.02913 5,-1.69075 0.825,-0.66162 5.775,-1.950454 11,-2.864074 5.225,-0.91361 10.85,-1.92787 12.5,-2.2539 1.65,-0.32603 4.575,-0.839 6.5,-1.13994 1.925,-0.30094 3.99206,-0.94047 4.59347,-1.42119 1.0515,-0.84049 6.07202,-1.97067 24.40653,-5.49422 4.675,-0.89845 8.9275,-2.02981 9.45,-2.51414 0.5225,-0.48433 2.90083,-0.8806 5.28518,-0.8806 2.38435,0 5.33185,-0.63379 6.55,-1.40842 2.83183,-1.80079 10.86941,-3.41748 22.79469,-4.58497 5.18107,-0.50723 11.22013,-1.34281 13.42013,-1.85684 12.64367,-2.95423 25.93229,-5.48299 32.5,-6.1846 4.125,-0.44066 9.75,-1.26386 12.5,-1.82933 8.29602,-1.70588 18.62228,-3.33072 25.5,-4.01242 3.575,-0.35435 7.0532,-0.99789 7.72933,-1.43009 0.67614,-0.4322 2.0624,-0.33997 3.0806,0.20495 1.82707,0.97781 9.10841,-0.48329 10.79037,-2.16524 0.40317,-0.40317 4.14553,-0.74404 8.31637,-0.75749 4.17083,-0.0134 9.60833,-0.51999 12.08333,-1.12566 2.475,-0.60567 7.65,-1.04347 11.5,-0.97289 7.44302,0.13646 43.46827,-2.70302 70,-5.51734 11.23223,-1.19145 24.49259,-1.68995 44.5,-1.6729 34.56295,0.0294 71.87903,1.26557 74.20138,2.45799 1.03106,0.5294 3.49288,0.39443 6.24848,-0.34258 3.62844,-0.97046 5.40604,-0.9548 8.79862,0.0775 2.33834,0.71153 8.52652,1.67973 13.75152,2.15155 5.225,0.47183 12.425,1.33601 16,1.9204 3.575,0.58439 10.325,1.27347 15,1.53128 4.675,0.25782 11.2,0.9577 14.5,1.55529 3.3,0.5976 8.475,1.25248 11.5,1.45531 13.05196,0.87512 31.81938,3.33944 33.89602,4.45082 1.23976,0.6635 5.70783,1.62141 9.92904,2.12868 4.22122,0.50728 9.92494,1.35333 12.67494,1.88012 2.75,0.52678 7.7,1.46443 11,2.08365 6.70077,1.25735 15.95433,3.67383 19,4.96167 1.1,0.46512 4.69394,1.12219 7.98654,1.46014 3.29259,0.33795 6.42009,1.04802 6.95,1.57793 0.5299,0.5299 1.94336,0.96346 3.14102,0.96346 1.19765,0 2.69989,0.62938 3.3383,1.39862 1.10191,1.32772 2.49094,1.66845 13.06293,3.20439 2.46333,0.35788 5.38833,1.23548 6.5,1.95022 1.11166,0.71474 4.72121,1.99236 8.02121,2.83916 6.08605,1.56172 10.77455,3.67771 18,8.12368 2.2,1.353714 5.575,3.175014 7.5,4.047344 8.57437,3.88554 12.07709,6.04959 13.99862,8.6486 1.13369,1.53339 2.70695,2.78799 3.49613,2.78799 0.78919,0 1.88352,0.83828 2.43185,1.86285 0.54833,1.02457 2.33496,2.41706 3.97028,3.09444 1.63532,0.67737 3.46392,2.42659 4.06356,3.88715 0.59963,1.46056 2.16286,4.41305 3.47384,6.56109 1.31097,2.14804 2.14922,4.51627 1.86278,5.26274 -0.71337,1.859 1.52198,4.33173 3.91589,4.33173 1.08244,0 4.42883,2.1023 7.43643,4.67177 5.35256,4.57284 5.45403,4.75815 4.79125,8.75 -0.37242,2.24303 -1.3221,5.33822 -2.1104,6.87821 -0.78831,1.53999 -1.14792,3.69908 -0.79914,4.79799 0.34878,1.0989 0.2084,2.53891 -0.31195,3.20002 -1.57571,2.00193 -2.36199,9.49569 -1.0795,10.28831 0.83129,0.51377 0.9255,4.28858 0.34467,13.81036 -1.20794,19.8022 -1.22148,21.99395 -0.14459,23.40656 2.36924,3.10783 3.34984,12.87408 2.73076,27.19678 -0.42755,9.89141 0.50373,13.56062 4.08997,16.11425 2.60338,1.85377 2.90533,2.61095 2.71394,6.80544 -0.11845,2.59578 0.19057,5.36326 0.68671,6.14996 3.01674,4.78346 -0.29286,15.79801 -6.85479,22.81324 -2.54366,2.71938 -4.88369,5.99571 -5.20005,7.28072 -1.18356,4.80737 -2.47236,20.88096 -2.99369,37.33639 -0.29622,9.35 -0.69161,18.8 -0.87864,21 -2.65636,31.24558 -4.46874,87.5297 -3.88018,120.5 0.17341,9.71406 -0.3118,50.56608 -0.80765,68 -0.0391,1.375 -0.0557,15.55 -0.0368,31.5 0.0189,15.95 0.0288,29.9 0.022,31 -0.14964,24.19854 1.25672,100.01829 1.87854,101.2757 0.46899,0.94837 0.93139,7.5743 1.02756,14.7243 0.0962,7.15 0.64817,16.375 1.22666,20.5 0.57849,4.125 1.00399,8.85 0.94557,10.5 -0.67056,18.93748 -0.63916,28.20567 0.11691,34.50183 0.49546,4.126 1.0947,18.526 1.33164,32 0.23694,13.47399 0.90758,27.64817 1.49032,31.49817 0.58275,3.85 0.97188,9.025 0.86475,11.5 -0.10713,2.475 0.34959,10.4288 1.01494,17.67511 1.44589,15.7473 2.03472,24.80326 2.65446,40.82489 0.2553,6.6 0.93522,16.725 1.51093,22.5 0.57571,5.77503 1.26245,14.55003 1.52609,19.50003 1.32568,24.89 1.87961,40.72118 1.662,47.49998 -0.34347,10.6995 1.80353,30.1393 3.55359,32.1756 0.79202,0.9216 1.88114,5.1966 2.42028,9.5 1.2086,9.6467 -0.015,14.1164 -5.08278,18.5643 -1.96502,1.7248 -4.03594,4.0639 -4.60203,5.198 -0.5661,1.1342 -2.2536,2.6492 -3.75,3.3667 -1.49641,0.7175 -2.72074,1.7862 -2.72074,2.375 0,0.6338 -1.12157,0.847 -2.75,0.5227 -1.6158,-0.3219 -3.55059,0.039 -4.69113,0.875 -1.06762,0.7825 -4.03627,1.4227 -6.59699,1.4227 -3.29534,0 -5.35806,0.6123 -7.05887,2.0954 -3.42709,2.9884 -6.80357,4.5348 -11.4529,5.2453 -3.38452,0.5173 -8.89444,2.904 -17.45011,7.559 -6.35696,3.4588 -7.5602,3.8301 -9.12759,2.817 -1.75288,-1.133 -9.10201,1.7455 -13.70964,5.3699 -1.34157,1.0553 -3.78621,1.7915 -5.7089,1.7192 -1.84944,-0.07 -3.99104,0.3951 -4.75913,1.0326 -0.76808,0.6374 -3.60112,1.4484 -6.29563,1.8021 -2.69451,0.3537 -6.69911,1.634 -8.89911,2.8451 -2.2,1.2112 -6.025,2.762 -8.5,3.4463 -2.475,0.6843 -7.32141,2.3296 -10.7698,3.6561 -3.44839,1.3266 -7.63324,2.412 -9.29966,2.412 -1.66642,0 -4.24501,0.6166 -5.7302,1.3701 -1.48519,0.7536 -4.77708,1.6721 -7.31531,2.0411 -2.53824,0.369 -5.46324,1.3131 -6.5,2.098 -1.03677,0.785 -3.13147,1.4415 -4.6549,1.459 -1.52343,0.017 -4.50742,1.1287 -6.63109,2.4693 -2.35119,1.4842 -4.68031,2.2233 -5.95569,1.8897 -1.22629,-0.3206 -5.66945,0.9488 -10.71888,3.0626 -4.74342,1.9856 -9.50176,3.6102 -10.57409,3.6102 -1.07234,0 -3.31132,0.7041 -4.97552,1.5647 -2.96018,1.5308 -12.569,3.6553 -16.20696,3.5834 -1.00765,-0.02 -2.91422,0.3753 -4.23682,0.8781 -2.9033,1.1038 -17.44254,2.9845 -26.50021,3.4279 -3.61302,0.1768 -9.01302,0.8186 -12,1.4261 -10.24862,2.0846 -28.07328,4.2094 -30.04967,3.5821 -1.08745,-0.3451 -2.54772,-0.154 -3.24505,0.4247 -0.69733,0.5787 -3.93823,1.3525 -7.20201,1.7195 -3.26378,0.367 -6.78799,1.107 -7.83158,1.6445 -1.04359,0.5374 -6.66859,1.5894 -12.5,2.3377 -5.83141,0.7483 -12.85256,1.7933 -15.60256,2.3223 -12.42612,2.3902 -32.53224,5.1871 -33.40607,4.6471 -0.53011,-0.3277 -2.9056,-0.1653 -5.27888,0.3608 -3.87851,0.8597 -24.61141,2.1335 -41.81505,2.569 -3.575,0.091 -7.24198,0.4985 -8.14885,0.9065 -0.90687,0.4081 -1.93797,0.2741 -2.29134,-0.2976 z m 31.94019,-33.5633 c 7.7,-0.018 14.675,-0.4835 15.5,-1.0335 0.825,-0.55 5.775,-1.3218 11,-1.7152 5.225,-0.3934 11.975,-1.1606 15,-1.705 3.025,-0.5444 7.075,-1.2685 9,-1.609 1.925,-0.3406 4.175,-0.8963 5,-1.2348 0.825,-0.3385 8.7,-1.3871 17.5,-2.3301 8.90755,-0.9546 19.10295,-2.6871 23,-3.9085 3.85,-1.2066 8.8,-2.4207 11,-2.698 2.2,-0.2773 4.4275,-0.9082 4.95,-1.4018 1.28337,-1.2126 6.23565,-1.1362 8.60663,0.1327 1.37476,0.7358 4.28637,0.5769 10.18426,-0.5557 14.24066,-2.7348 20.14399,-3.4572 23.77235,-2.9093 2.10516,0.3179 5.04033,-0.1076 7.3234,-1.0615 2.09559,-0.8756 4.65465,-1.324 5.68679,-0.9964 1.03213,0.3276 3.3616,-0.182 5.17659,-1.1324 1.81499,-0.9504 4.60128,-1.6366 6.19175,-1.5248 1.59047,0.1117 3.61547,-0.4251 4.5,-1.1929 0.88453,-0.7679 2.95823,-1.7001 4.60823,-2.0715 6.39098,-1.4387 10.25352,-2.5769 17,-5.0098 3.85,-1.3884 7.98869,-2.536 9.19709,-2.5502 1.20839,-0.014 4.31292,-1.1508 6.89893,-2.5258 2.58602,-1.375 5.6119,-2.5 6.72418,-2.5 1.11227,0 2.73275,-0.5981 3.60106,-1.3292 0.86831,-0.731 5.82605,-1.9052 11.0172,-2.6092 5.19115,-0.704 10.14115,-1.628 11,-2.0534 5.31492,-2.6321 13.93636,-5.3153 19.31614,-6.0116 3.43497,-0.4445 8.4954,-1.7859 11.2454,-2.9808 8.5083,-3.6969 13.91538,-6.4471 16,-8.1383 2.00743,-1.6285 4.99254,-2.5535 11.5,-3.5633 1.925,-0.2988 4.175,-1.1316 5,-1.8508 0.825,-0.7192 2.85,-1.6149 4.5,-1.9904 1.65,-0.3756 3.9256,-1.7716 5.0569,-3.1022 1.54341,-1.8153 3.41571,-2.5617 7.5,-2.9896 6.99965,-0.7334 11.40834,-2.7389 14.13848,-6.4316 1.25985,-1.704 3.10533,-2.9496 4.37023,-2.9496 1.20423,0 2.7497,-0.675 3.43439,-1.5 0.71805,-0.8652 2.89917,-1.5 5.15383,-1.5 4.87307,0 5.60001,-1.5875 3.04663,-6.653 -1.31616,-2.6111 -2.15792,-7.0596 -2.62021,-13.847 -0.37461,-5.5 -0.807,-11.8 -0.96087,-14 -0.15388,-2.2 0.15144,-4.5655 0.67849,-5.2568 0.62119,-0.8147 0.51514,-2.8394 -0.3015,-5.7562 -0.69287,-2.4746 -1.43959,-8.8841 -1.65939,-14.24318 -1.03091,-25.1354 -1.28444,-26.9794 -3.94951,-28.7256 -1.95084,-1.2782 -3.14336,-1.4044 -5.67846,-0.6007 -1.76495,0.5595 -5.90901,1.7788 -9.20901,2.7096 -3.3,0.9307 -7.125,2.2402 -8.5,2.9098 -2.73307,1.331 -10.75917,3.49 -15.5,4.1695 -1.65,0.2364 -3.9,0.8016 -5,1.256 -6.34834,2.6221 -11.85635,4.164 -16.61491,4.651 -2.9618,0.3032 -6.68608,1.045 -8.27617,1.6487 -1.5901,0.6036 -3.93116,1.1429 -5.20237,1.1986 -1.2712,0.056 -3.34522,1.0674 -4.60892,2.2484 -1.62385,1.5175 -4.20376,2.3489 -8.79763,2.8349 -3.575,0.3783 -9.34401,1.8041 -12.82003,3.1685 -3.47601,1.3644 -6.58461,2.2162 -6.90799,1.8928 -0.32338,-0.3234 -1.07937,-0.2033 -1.67997,0.2669 -0.60061,0.4701 -3.09468,1.1609 -5.5424,1.5351 -2.44771,0.3742 -4.92271,1.0496 -5.5,1.5008 -0.57728,0.4512 -4.39601,1.0873 -8.48604,1.4136 -5.19448,0.41438 -7.6967,1.05818 -8.29969,2.13568 -0.4748,0.8485 -2.16434,1.5426 -3.75455,1.5426 -1.59021,0 -3.16941,0.45 -3.50933,1 -0.33992,0.55 -2.11138,1 -3.93657,1 -1.8252,0 -3.87874,0.675 -4.56343,1.5 -0.77037,0.9282 -2.96676,1.5 -5.7622,1.5 -3.04124,0 -4.91101,0.5384 -5.72216,1.6477 -0.9051,1.2378 -3.04713,1.6958 -8.61024,1.8409 -7.3547,0.1919 -12.02425,1.4369 -14.90357,3.9738 -1.38125,1.217 -6.28799,2.0436 -18.73725,3.1565 -11.57281,1.0346 -20.26298,2.2586 -26.76458,3.7698 -3.85,0.8949 -10.825,1.8907 -15.5,2.213 -18.84028,1.2989 -23.62538,1.9831 -24.57126,3.5136 -0.30072,0.4866 -2.06592,0.8847 -3.92266,0.8847 -1.85673,0 -4.63211,0.4776 -6.1675,1.0614 -2.7892,1.0604 -11.76456,1.4869 -50.33858,2.3919 -14.95799,0.351 -24.6903,1.1464 -36,2.9425 -17.59712,2.7946 -44.10077,5.847 -54.5,6.2768 -3.85,0.1591 -10.15,0.5358 -14,0.8371 -3.85,0.3013 -14.93605,0.6327 -24.63567,0.7364 -13.49177,0.1443 -18.015,-0.1263 -19.25,-1.1512 -2.35255,-1.9525 -2.00375,-3.5516 1.54971,-7.1051 4.03474,-4.0347 7.33449,-5.3285 9.97958,-3.9129 1.10696,0.5924 2.765,0.7313 3.68452,0.3087 0.91952,-0.4227 5.94686,-0.9055 11.17186,-1.0729 8.34602,-0.2673 18.51426,-1.1554 30,-2.62 1.925,-0.2454 4.05677,0 4.73727,0.5424 0.69369,0.5543 2.01169,0.6333 3,0.1798 2.25858,-1.0364 5.93947,-1.448 15.26273,-1.7068 4.125,-0.1144 8.10251,-0.5969 8.83891,-1.0721 2.45188,-1.5821 11.55595,-3.575 13.78079,-3.0166 1.20671,0.3029 3.16484,0.031 4.35139,-0.6039 1.31396,-0.7032 8.69546,-1.2648 18.88105,-1.4364 11.53367,-0.1943 17.48775,-0.6943 19.18576,-1.6112 1.79181,-0.9675 5.86513,-1.2288 14.9621,-0.9599 18.06236,0.534 22.65664,0.2488 26.67011,-1.6557 2.84529,-1.3502 4.16462,-1.4757 6.44916,-0.6134 1.57964,0.5963 3.09352,0.7258 3.36417,0.2879 0.9116,-1.475 17.01526,-4.2512 26.51656,-4.5714 4.125,-0.139 11.1,-0.7439 15.5,-1.3442 4.4,-0.6003 12.725,-1.7245 18.5,-2.4982 5.775,-0.7737 11.85138,-1.8399 13.50306,-2.3693 1.65168,-0.5293 6.59452,-1.299 10.98408,-1.7103 4.38957,-0.4114 8.87582,-1.3746 9.96945,-2.1407 1.09363,-0.766 2.71203,-1.3927 3.59644,-1.3927 0.88441,0 3.82178,-1.13488 6.52749,-2.52198 3.75592,-1.9255 6.88892,-2.6211 13.24618,-2.9412 4.57969,-0.2306 8.85469,-0.8338 9.5,-1.3406 0.64532,-0.5067 3.60552,-1.1952 6.57823,-1.53 3.39757,-0.3826 6.20696,-1.3621 7.56445,-2.6374 1.34879,-1.2672 3.51871,-2.0288 5.77997,-2.0288 1.99125,0 4.88725,-0.4886 6.43555,-1.0859 1.54831,-0.5972 4.8401,-1.4659 7.3151,-1.9304 2.475,-0.4646 6.975,-1.7197 10,-2.7892 3.63931,-1.2866 6.07783,-1.6442 7.20801,-1.0568 1.26404,0.657 1.98801,0.3645 2.78519,-1.125 0.88185,-1.6477 2.08888,-2.0127 6.65666,-2.0127 3.91113,0 6.96552,-0.7116 10.21481,-2.3798 2.54943,-1.3089 6.66033,-2.9308 9.13533,-3.6042 2.475,-0.6733 5.53367,-1.6274 6.79705,-2.1201 1.26338,-0.4928 4.69578,-0.8959 7.62756,-0.8959 3.51827,0 5.75373,-0.51 6.57539,-1.5 0.76965,-0.9274 3.01147,-1.5119 5.87244,-1.5313 2.83965,-0.019 6.55937,-0.9815 9.62756,-2.4908 2.75,-1.3528 5.99497,-2.4637 7.21104,-2.4688 1.21608,0 3.01608,-0.8422 4,-1.8604 0.98393,-1.0182 4.03896,-2.3362 6.78896,-2.9289 10.89936,-2.3489 18.8719,-5.0079 20.11586,-6.70914 0.71907,-0.98338 2.33717,-2.30206 3.59577,-2.93039 2.28401,-1.14024 2.28802,-1.18221 2.10708,-22.00986 -0.13911,-16.01303 -0.48806,-21.06784 -1.5,-21.72888 -1.76007,-1.14975 -5.59544,-0.16231 -8.62465,2.22046 -1.44275,1.13487 -4.01796,1.93801 -6.21408,1.93801 -4.0871,0 -12.91867,2.36962 -17.13427,4.59735 -1.45986,0.77146 -3.50221,1.40265 -4.53856,1.40265 -1.03635,0 -3.64956,0.9 -5.80715,2 -2.15759,1.1 -4.92344,2 -6.14634,2 -1.2229,0 -3.49026,0.5004 -5.03856,1.112 -1.54831,0.61161 -3.4901,1.17432 -4.3151,1.25048 -0.825,0.0761 -4.2,1.07837 -7.5,2.22715 -15.90855,5.53799 -22.36332,7.41037 -25.54625,7.41037 -1.90682,0 -5.03898,0.47348 -6.96035,1.05217 -4.24786,1.2794 -17.5856,4.00797 -26.9934,5.52218 -2.475,0.39836 -5.57319,1.5571 -6.88486,2.57497 -1.56362,1.21339 -4.03988,1.85068 -7.19098,1.85068 -2.64337,0 -5.04758,0.39069 -5.3427,0.86819 -0.29511,0.47751 -2.90917,1.20944 -5.80902,1.62652 -2.89984,0.41708 -6.17244,0.88716 -7.27244,1.04461 -2.4992,0.35773 -12.99621,3.22484 -17,4.64331 -3.20466,1.13535 -11.03003,2.58487 -18.70514,3.46487 -2.58783,0.2967 -5.23043,1.1724 -5.87245,1.946 -0.64201,0.7736 -2.01041,1.4065 -3.04087,1.4065 -1.03047,0 -4.46287,0.8522 -7.62756,1.8938 -3.16469,1.0415 -10.47898,2.4141 -16.25398,3.0502 -5.775,0.6361 -11.97177,1.6163 -13.77059,2.1784 -1.79883,0.5621 -6.37103,1.1259 -10.16044,1.253 -3.88777,0.1304 -7.57937,0.8033 -8.47232,1.5444 -0.87037,0.7223 -4.97727,1.5033 -9.12644,1.7355 -4.14918,0.2322 -8.76486,0.9124 -10.25708,1.5114 -5.11275,2.0525 -10.71829,2.9515 -17.71313,2.8409 -4.2489,-0.067 -8.76856,0.5326 -11.5,1.5261 -2.475,0.9003 -6.75,1.7905 -9.5,1.9782 -11.46724,0.7831 -23.89511,3.0185 -29.77927,5.3565 -1.52859,0.6074 -3.77859,1.0548 -5,0.9942 -1.2214,-0.061 -5.14573,0.6666 -8.72073,1.6161 -6.66283,1.7696 -11.5708,2.1008 -44.5,3.0028 -10.45,0.2862 -27.1,1.2264 -37,2.0893 -9.9,0.8628 -24.02179,1.7236 -31.38175,1.9127 -12.96419,0.3332 -13.45565,0.27 -15.75,-2.0243 -3.32892,-3.329 -3.06121,-6.8296 0.72868,-9.5282 2.84551,-2.0262 4.48943,-2.2348 20.25,-2.5689 9.43419,-0.2 19.85131,-0.7895 23.14916,-1.31 3.29785,-0.5205 7.90408,-0.6849 10.23606,-0.3652 2.6837,0.3678 4.78205,0.1312 5.71683,-0.6446 1.00848,-0.8369 7.54226,-1.3614 20.60153,-1.6536 14.25574,-0.319 19.8538,-0.805 21.98864,-1.9089 2.27572,-1.1769 3.38681,-1.2428 5.40946,-0.3213 1.93035,0.8796 3.48046,0.8797 6.41446,7e-4 2.12793,-0.6376 4.96426,-1.1592 6.30295,-1.1592 1.33869,0 2.90221,-0.4682 3.4745,-1.0405 0.57229,-0.5723 4.82479,-1.2078 9.45,-1.4121 4.62521,-0.2044 9.08448,-0.5861 9.90948,-0.8482 0.825,-0.2621 5.325,-1.013 10,-1.6686 4.675,-0.6555 10.3,-1.8737 12.5,-2.7071 2.2,-0.8333 8.275,-1.9117 13.5,-2.3964 5.225,-0.4848 13.325,-1.5404 18,-2.3459 4.675,-0.8055 13,-1.9883 18.5,-2.6284 5.5,-0.6401 11.86676,-1.7705 14.14835,-2.512 2.2816,-0.74141 5.71189,-1.09432 7.62287,-0.78421 2.06382,0.33491 3.7531,0.11307 4.16067,-0.54638 0.37738,-0.61061 1.98303,-1.11021 3.56811,-1.11021 1.58508,0 3.16008,-0.45 3.5,-1 0.33992,-0.55 2.19606,-1 4.12476,-1 1.9287,0 4.31696,-0.43363 5.30725,-0.96361 1.18595,-0.63471 2.80113,-0.58593 4.732,0.14289 2.32691,0.87831 3.64345,0.77813 6.38373,-0.48577 1.89874,-0.87575 6.30833,-2.09275 9.79907,-2.70445 3.49075,-0.6117 7.38179,-1.50568 8.64676,-1.98662 1.26497,-0.48094 6.55404,-1.5991 11.75349,-2.4848 5.19945,-0.88569 13.21472,-2.95465 17.81172,-4.59767 5.28141,-1.88763 9.33071,-2.7737 11.00013,-2.40703 1.45308,0.31915 4.59154,-0.0914 6.97436,-0.91236 2.38281,-0.82094 4.6512,-1.29559 5.04087,-1.05476 0.38967,0.24083 2.69934,-0.44277 5.1326,-1.51912 2.43325,-1.07635 8.16564,-2.60629 12.73863,-3.39987 4.73396,-0.82151 9.46524,-2.29362 10.9866,-3.41841 2.56451,-1.89602 4.14614,-2.23674 17.56803,-3.78454 3.3,-0.38055 6.88763,-1.3066 7.97251,-2.0579 1.08487,-0.75129 2.71727,-1.36598 3.62755,-1.36598 0.91028,0 2.21525,-0.675 2.89994,-1.5 1.48538,-1.78978 5.134,-1.966 6.77287,-0.32713 0.89717,0.89717 1.78455,0.89418 3.77494,-0.0127 1.43113,-0.65207 2.96173,-0.96329 3.40132,-0.69161 0.43959,0.27168 2.00405,-0.6226 3.47659,-1.9873 1.47253,-1.36469 3.26845,-2.48126 3.99094,-2.48126 0.72249,0 2.56125,-0.98138 4.08612,-2.18085 1.60885,-1.26552 4.49851,-2.289 6.88486,-2.43854 2.2618,-0.14174 6.00312,-1.18536 8.31405,-2.31916 5.05118,-2.47823 5.6743,-2.51826 7.37127,-0.47354 1.18507,1.42793 1.39567,1.37755 2.09022,-0.5 0.57529,-1.55516 1.63804,-2.08791 4.16502,-2.08791 1.86596,0 5.48046,-0.28617 8.03223,-0.63592 3.65743,-0.50131 4.63957,-1.03577 4.63957,-2.52475 0,-1.03886 1.0125,-2.32662 2.25,-2.86169 1.2375,-0.53508 2.925,-1.37179 3.75,-1.85936 4.16418,-2.46103 7.08635,-3.31342 9.38295,-2.73701 4.06899,1.02125 5.16587,-2.17285 3.59859,-10.47911 -0.70069,-3.71353 -1.00161,-8.73911 -0.6687,-11.16795 0.33291,-2.42884 0.21182,-4.82516 -0.2691,-5.32514 -0.48091,-0.49999 -1.02499,-2.03407 -1.20906,-3.40907 -0.2624,-1.96005 -0.87463,-2.46871 -2.83468,-2.35511 -4.52679,0.26237 -10.4766,1.61415 -11.83837,2.68966 -3.38237,2.67134 -23.20722,8.14174 -33.66163,9.28847 -3.93072,0.43115 -10.28519,2.06504 -19.82189,5.09669 -2.65203,0.84307 -7.37703,1.67175 -10.5,1.84151 -8.83604,0.48032 -24.46264,2.46032 -26.67811,3.38031 -1.1,0.45678 -4.025,1.37866 -6.5,2.04863 -2.475,0.66996 -5.53367,1.62126 -6.79705,2.11398 -1.26338,0.49272 -3.03381,0.89586 -3.93428,0.89586 -0.90047,0 -3.58897,0.94482 -5.97444,2.09961 -4.59655,2.22515 -14.17431,3.81353 -23.32172,3.86767 -3.40657,0.0202 -6.40601,0.64805 -7.81704,1.63638 -1.42434,0.99765 -3.49237,1.42467 -5.47251,1.13 -1.75063,-0.26051 -5.07166,0.0916 -7.38008,0.78256 -2.30841,0.69092 -4.37016,1.08316 -4.58167,0.87166 -0.21151,-0.21151 -3.21289,0.76469 -6.66974,2.16933 -4.83535,1.96478 -8.04194,2.5539 -13.90097,2.5539 -4.85352,0 -8.16614,0.47655 -9.13315,1.31388 -1.83731,1.59092 -5.98343,2.66986 -12.01735,3.12723 -2.475,0.18761 -6.75,0.83927 -9.5,1.44815 -2.75,0.60887 -8.825,1.54043 -13.5,2.07014 -4.675,0.52971 -9.80465,1.40555 -11.39922,1.9463 -1.59458,0.54076 -4.63818,0.98319 -6.76357,0.98319 -2.12539,0 -4.64574,0.40231 -5.60078,0.89403 -1.71553,0.88326 -8.01068,2.33557 -17.73643,4.09183 -2.75,0.49659 -10.175,1.86359 -16.5,3.03777 -6.325,1.17418 -17.575,2.74419 -25,3.48891 -7.425,0.74473 -15.525,1.81094 -18,2.36937 -2.475,0.55843 -7.425,1.30605 -11,1.66138 -3.575,0.35533 -7.52289,1.29564 -8.7731,2.08957 -1.6518,1.04896 -4.1488,1.30414 -9.13555,0.93361 -4.17088,-0.30991 -9.55482,0.0605 -13.7269,0.94445 -9.06452,1.92048 -16.79539,1.91528 -18.72325,-0.0126 -1.33555,-1.33555 -1.53704,-1.25503 -1.82143,0.72788 -0.25165,1.7546 -1.06535,2.28792 -3.81977,2.50358 -1.925,0.15072 -5.975,0.7942 -9,1.42994 -8.65675,1.81934 -17,2.22281 -17,0.82209 0,-0.75922 -0.63892,-0.92073 -1.75,-0.44238 -0.9625,0.41439 -7.04815,0.86235 -13.52366,0.99547 -6.47552,0.13312 -13.10928,0.79527 -14.7417,1.47144 -2.4711,1.02357 -3.59728,0.95345 -6.72634,-0.41878 -8.35343,-3.66335 -8.74547,-3.99826 -9.06101,-7.74056 -0.28034,-3.32484 0.0152,-3.75747 4,-5.85462 3.80903,-2.00466 5.62218,-2.24783 15.80271,-2.11941 16.78027,0.21167 18.09263,0.1478 20.20609,-0.98328 1.22993,-0.65824 2.34874,-0.68422 3.10783,-0.0722 2.20748,1.77988 9.63219,2.47208 11.33729,1.05697 0.97167,-0.80642 5.08837,-1.43965 10.67027,-1.64131 4.99852,-0.18059 9.55854,-0.67819 10.13337,-1.10579 0.57483,-0.42759 3.52015,-0.85567 6.54515,-0.95128 3.025,-0.0956 7.8841,-0.91774 10.79801,-1.82697 3.99801,-1.2475 5.58068,-1.37047 6.45,-0.50115 1.82304,1.82304 3.92367,1.36169 6.93468,-1.52304 2.60057,-2.4915 3.44119,-2.68347 12.25294,-2.79815 7.6201,-0.0992 9.85114,-0.47637 11.46699,-1.93869 1.62936,-1.47456 2.55222,-1.62522 4.91328,-0.80215 3.59904,1.25463 12.6229,0.67332 20.25731,-1.30495 4.16069,-1.07814 6.49504,-1.21548 8.39322,-0.49379 2.85312,1.08475 10.9203,-0.23338 13.24718,-2.16452 1.06979,-0.88784 8.55867,-2.09242 19.78639,-3.1826 1.1,-0.10681 2.91384,-0.70756 4.03075,-1.335 1.11691,-0.62745 5.39191,-1.46042 9.5,-1.85106 4.10809,-0.39064 7.91925,-1.04397 8.46925,-1.45184 0.55,-0.40786 2.8,-1.30037 5,-1.98335 2.2,-0.68297 5.05444,-1.90447 6.3432,-2.71444 2.33285,-1.46616 8.42352,-1.38665 17.28354,0.22563 2.92174,0.53168 3.8937,0.28357 5,-1.27634 0.75529,-1.06498 2.35618,-2.45774 3.55752,-3.09502 3.22329,-1.70988 10.3481,-1.43939 12.46138,0.4731 1.67142,1.51262 2.00583,1.49462 4.57874,-0.24641 6.38813,-4.32272 8.35411,-4.82718 27.27562,-6.99881 3.025,-0.34718 5.97342,-1.00736 6.55204,-1.46706 0.57862,-0.4597 1.97275,-0.59505 3.09807,-0.30077 1.12531,0.29428 3.62849,-0.12614 5.56261,-0.93427 2.21648,-0.9261 5.22304,-1.27697 8.13234,-0.94905 3.28632,0.37041 5.33133,0.0514 7.10017,-1.10759 1.69531,-1.11081 4.70016,-1.62784 9.46057,-1.62784 3.83689,0 7.23008,-0.41084 7.54042,-0.91299 0.31034,-0.50214 2.43604,-1.22922 4.72377,-1.61573 2.28773,-0.38651 6.20189,-1.78869 8.69813,-3.11596 2.49625,-1.32726 5.15062,-2.17837 5.8986,-1.89134 0.74799,0.28703 2.73403,-0.18869 4.41344,-1.05714 1.6794,-0.86846 3.85973,-1.36817 4.84516,-1.11047 0.98544,0.2577 3.74537,0.032 6.13319,-0.5016 2.38782,-0.53357 5.91649,-1.09513 7.84149,-1.2479 5.61054,-0.44525 16.23165,-2.70718 19.65113,-4.18501 1.73312,-0.74902 6.23312,-1.37617 10,-1.39366 4.43057,-0.0206 7.53427,-0.55022 8.79,-1.5 1.06762,-0.80751 2.86762,-1.47475 4,-1.48275 2.5972,-0.0184 10.60099,-2.77552 12.40619,-4.2737 0.7497,-0.6222 4.05695,-1.16644 7.34945,-1.20942 4.66697,-0.0609 6.20789,-0.47404 6.99156,-1.87436 0.69837,-1.24793 1.71006,-1.6193 3.31438,-1.21665 1.4826,0.37211 3.86416,-0.30938 6.65323,-1.90383 2.38924,-1.36587 5.5927,-2.48882 7.11881,-2.49544 1.96056,-0.009 3.01635,-0.67226 3.59812,-2.26205 1.07221,-2.92998 0.3903,-25.72797 -0.8129,-27.17775 -0.50883,-0.61309 -0.7118,-4.25611 -0.45105,-8.09559 0.35034,-5.15863 0.0913,-7.50239 -0.99232,-8.97877 -1.4322,-1.95129 -1.58207,-1.95707 -6.42572,-0.24789 -2.72762,0.9625 -5.40542,1.75 -5.95066,1.75 -0.54525,0 -3.63485,1.21068 -6.86579,2.69039 -5.92395,2.71308 -12.27251,4.5245 -22.37443,6.38404 -3.025,0.55684 -7.3,1.83324 -9.5,2.83643 -2.2,1.0032 -5.58041,2.52895 -7.51202,3.39056 -1.93161,0.86161 -5.98161,1.88114 -9,2.26563 -3.01839,0.38448 -6.04789,1.14214 -6.73223,1.68368 -0.68434,0.54154 -2.42152,0.75957 -3.86039,0.48452 -1.47068,-0.28114 -5.10278,0.4744 -8.29544,1.72559 -3.12361,1.22414 -8.12519,2.55016 -11.11461,2.94672 -2.98942,0.39656 -5.89656,1.09147 -6.46031,1.54425 -0.56375,0.45278 -2.825,1.05284 -5.025,1.33346 -5.4742,0.69828 -12.40125,2.76484 -21,6.26497 -1.65,0.67163 -9.3,1.95913 -17,2.8611 -7.7,0.90197 -15.8,2.28366 -18,3.07041 -2.2,0.78676 -6.08254,1.45022 -8.62788,1.47436 -2.54533,0.0241 -6.24337,0.71889 -8.21788,1.54389 -1.9745,0.825 -5.57802,1.5 -8.00781,1.5 -2.4298,0 -5.70675,0.67223 -7.28212,1.49384 -1.57537,0.82161 -4.18236,1.49661 -5.79331,1.5 -1.61095,0.003 -4.31095,0.43543 -6,0.9601 -3.24224,1.00713 -20.62595,4.62791 -29.071,6.05508 -2.75,0.46474 -7.48737,0.87783 -10.52749,0.91798 -3.42608,0.0453 -6.42775,0.70356 -7.89549,1.73161 -1.54985,1.08556 -4.99536,1.78136 -9.97251,2.0139 -8.05006,0.37611 -25.13906,2.65374 -33.76996,4.50088 -2.841,0.60801 -5.88645,0.8288 -6.76767,0.49065 -0.88122,-0.33816 -3.05677,0.012 -4.83455,0.77818 -1.77778,0.76616 -6.60733,1.90978 -10.73233,2.54139 -4.125,0.6316 -10.425,1.89106 -14,2.7988 -3.575,0.90774 -8.11865,1.54724 -10.097,1.42111 -1.97835,-0.12613 -5.2264,0.45148 -7.21788,1.28358 -1.99149,0.83209 -6.22284,1.51376 -9.403,1.51482 -3.18017,10e-4 -12.98212,0.93532 -21.78212,2.07613 -17.00694,2.20475 -25.85616,2.50217 -64,2.15107 -13.2,-0.1215 -26.492,0.13896 -29.53778,0.57881 -3.04578,0.43984 -11.78878,0.47974 -19.42889,0.0887 -7.64011,-0.39109 -14.82311,-0.37388 -15.96222,0.0382 -1.13911,0.41211 -11.07111,0.54931 -22.07111,0.30488 -11,-0.24443 -23.74859,-0.3922 -28.33021,-0.32838 -4.58162,0.0638 -13.58162,-0.7573 -20,-1.82473 -6.41838,-1.06743 -12.93976,-1.68993 -14.49194,-1.38332 -1.55218,0.3066 -3.80218,0.0826 -5,-0.4978 -1.19782,-0.58039 -4.93418,-1.26629 -8.30304,-1.52422 -3.36885,-0.25793 -7.64385,-1.16099 -9.5,-2.0068 -3.4861,-1.58854 -7.66025,-2.20157 -21.37481,-3.13917 -17.41,-1.19024 -51.09438,-4.79692 -52.68426,-5.64105 -4.95841,-2.63261 -9.70782,0.52001 -7.94843,5.2761 0.5049,1.36487 0.44956,3.49084 -0.13447,5.16618 -0.67476,1.93564 -0.64303,4.01787 0.0991,6.50519 1.03272,3.46102 2.17684,14.99766 2.51474,25.35721 0.18662,5.72141 1.8049,7.81199 4.66466,6.02604 2.49621,-1.55891 14.08573,-1.59346 17.46868,-0.0521 1.96907,0.89717 2.84989,0.89717 3.74706,0 1.78442,-1.78442 4.53092,-1.41162 7.8885,1.07074 2.69207,1.99033 4.25651,2.24927 13.85864,2.29384 6.08713,0.0282 11.41517,0.51774 12.17486,1.11851 1.63239,1.2909 6.26438,2.63613 10.35087,3.00612 1.65,0.14939 9.3,0.89368 17,1.65398 7.96901,0.78686 20.67717,1.22255 29.5,1.01139 39.23164,-0.93894 34.88698,-1.16384 37.55875,1.94421 1.86179,2.16582 2.24892,3.47733 1.77107,6 -1.27858,6.74988 -1.56456,6.91384 -11.65903,6.68449 -5.04393,-0.11461 -16.80389,0.29174 -26.13323,0.90299 -11.49521,0.75316 -18.95902,0.79241 -23.15695,0.12179 -3.40697,-0.54427 -6.9171,-0.71229 -7.80029,-0.37338 -0.88318,0.33891 -2.23269,0.0959 -2.9989,-0.53998 -0.76621,-0.6359 -7.17298,-1.5683 -14.23727,-2.07201 -7.06428,-0.5037 -13.80586,-1.19797 -14.98129,-1.54281 -1.17543,-0.34484 -2.43454,-0.14578 -2.79803,0.44236 -0.43058,0.69668 -1.95099,0.25732 -4.36286,-1.26076 -2.04714,-1.28852 -7.71349,-3.12385 -12.67605,-4.10576 -4.93574,-0.97662 -9.88574,-2.12321 -11,-2.54799 -1.11426,-0.42478 -4.05092,-1.31016 -6.52592,-1.96752 -2.475,-0.65737 -6.44186,-2.06264 -8.81524,-3.12284 -2.37338,-1.0602 -4.76763,-1.64804 -5.32056,-1.30631 -0.55292,0.34172 -0.77088,2.26264 -0.48435,4.2687 0.28653,2.00605 0.80057,6.65192 1.14231,10.32414 0.50829,5.46192 1.12978,7.2088 3.41573,9.60082 3.67438,3.84488 5.04907,12.78649 2.55177,16.59777 -1.57035,2.3967 -2.47986,14.9677 -1.17716,16.2704 0.29577,0.2958 2.11989,-0.034 4.0536,-0.7335 2.67864,-0.9686 4.42285,-1.0077 7.32487,-0.1639 2.09497,0.6092 8.75903,1.6145 14.80903,2.234 6.05,0.6196 12.35,1.3729 14,1.6739 1.65,0.3011 5.925,0.6637 9.5,0.8059 3.575,0.1422 8.51078,1.028 10.96839,1.9685 3.04157,1.1639 5.59609,1.4843 8,1.0032 1.94239,-0.3886 7.6495,-0.6161 12.68248,-0.5054 5.60931,0.1234 9.40559,-0.2108 9.80902,-0.8636 0.82608,-1.3366 5.21584,-1.3986 6.02764,-0.085 0.60381,0.977 6.31793,0.7637 14.13282,-0.5276 2.64788,-0.4375 4.36646,-0.2826 4.80902,0.4335 0.37877,0.6129 2.58698,1.1143 4.90714,1.1143 5.39742,0 8.412,2.1425 9.24236,6.5687 0.50115,2.6714 0.21437,4.0023 -1.19889,5.5639 -3.25194,3.5934 -5.31563,4.2088 -9.49188,2.8305 -3.03304,-1.001 -4.13035,-1.0069 -5.30913,-0.029 -2.90039,2.4071 -56.5883,0.7364 -61.54274,-1.9151 -1.04761,-0.5607 -4.38277,-1.0194 -7.41147,-1.0194 -3.0287,0 -5.78484,-0.45 -6.12476,-1 -0.33992,-0.55 -2.69703,-1 -5.23802,-1 -2.54099,0 -6.00193,-0.4134 -7.69098,-0.9186 -6.55638,-1.961 -20.1896,-5.233 -22.5121,-5.4029 -1.82531,-0.1335 -2.62,0.4521 -3.15032,2.3215 -1.00976,3.5594 -0.90467,17.4311 0.1856,24.49998 0.50898,3.3 1.20106,8.475 1.53795,11.5 0.33689,3.025 1.06258,6.0625 1.61264,6.75 0.69964,0.8745 4.64372,1.2552 13.12767,1.2673 6.67016,0.01 16.20213,0.4468 21.18215,0.9716 4.98003,0.5249 17.13003,1.1877 27,1.4728 9.86998,0.2852 20.25335,0.793 23.07416,1.1285 2.95786,0.3518 5.97052,0.1594 7.11743,-0.4544 2.52146,-1.3494 12.67236,0.5988 16.22633,3.1142 1.35987,0.9625 2.96137,1.75 3.55887,1.75 0.5975,0 1.90689,0.6 2.90977,1.3333 1.74226,1.274 1.74565,1.452 0.0761,4 -1.53088,2.3364 -2.40693,2.6667 -7.07326,2.6667 -2.92929,0 -5.60797,0.4563 -5.95263,1.0139 -0.34466,0.5577 -2.95872,0.9617 -5.80902,0.8978 -2.8503,-0.064 -7.88236,0.3958 -11.18236,1.0215 -3.3,0.6258 -7.99665,1.1366 -10.43699,1.1351 -2.44035,0 -5.04319,0.5003 -5.78409,1.1152 -0.98785,0.8198 -1.93804,0.8225 -3.56301,0.01 -2.47528,-1.2377 -15.34827,-2.8599 -29.69231,-3.7418 -5.21203,-0.3204 -9.93703,-0.9433 -10.5,-1.3841 -0.56298,-0.4408 -3.4986,-1.1078 -6.5236,-1.4823 -5.05887,-0.6262 -7.14306,-1.1187 -15.39654,-3.638 -3.89201,-1.1881 -4.59939,-0.5311 -3.56457,3.3106 0.48033,1.7831 1.13369,5.4921 1.45191,8.2421 1.0201,8.8154 2.26837,15.8581 3.81076,21.5 0.82698,3.025 1.80533,8.4057 2.1741,11.957 0.4909,4.7275 1.18664,6.8186 2.59742,7.8067 1.05981,0.7424 1.92692,1.9709 1.92692,2.73 0,1.7313 7.0313,8.4859 8.84563,8.4976 0.7401,0 2.76321,1.0212 4.49581,2.2587 5.51264,3.9374 9.75678,5.8536 11.64057,5.2557 1.28372,-0.4074 2.4731,0.3247 3.9914,2.457 1.38091,1.9393 3.0308,3.0373 4.56389,3.0373 2.1349,0 7.07091,2.0061 12.9627,5.2683 6.58983,3.6486 9.18954,4.4941 12.27813,3.9929 2.62716,-0.4264 3.88716,-0.011 6.02208,1.9836 2.58529,2.4158 4.05138,2.8887 14.20423,4.5823 2.47744,0.4132 5.07257,1.1025 5.76696,1.5316 0.69439,0.4292 4.96739,1.2123 9.49556,1.7403 4.52817,0.5281 9.60302,1.1271 11.27745,1.3312 1.67442,0.2041 4.75973,1.0879 6.85623,1.9638 2.09651,0.876 4.20472,1.3499 4.68493,1.0531 0.4802,-0.2968 1.8949,0.012 3.14376,0.6865 1.27932,0.6907 6.85484,1.331 12.77067,1.4664 5.775,0.1322 17.925,0.4111 27,0.6198 12.14107,0.2792 17.42462,0.7927 20,1.9438 1.925,0.8604 4.11142,1.2428 4.8587,0.8498 0.74729,-0.393 3.44729,-0.3211 6,0.1598 2.55272,0.4809 6.8913,0.7839 9.6413,0.6732 6.78937,-0.273 26.56397,0.9452 36.1566,2.2275 13.96454,1.8667 14.80883,1.9531 17.3434,1.7747 10.2822,-0.7239 55.82841,0.6465 56.89369,1.7118 0.2539,0.2539 1.39419,0.1342 2.53398,-0.2659 1.13978,-0.4001 8.37233,-0.7425 16.07233,-0.761 z M 469.9756,839.30801 c 5.38981,-0.0241 13.17466,-0.51098 17.29966,-1.08184 8.90574,-1.23246 6.7269,-1.20126 31,-0.44394 10.725,0.33461 20.4,0.62768 21.5,0.65126 3.87705,0.0831 14.07401,-0.87591 20.41427,-1.91991 3.91873,-0.64527 7.07492,-0.70263 8.11233,-0.14743 1.03542,0.55414 3.80048,0.5093 7.08572,-0.11492 2.96323,-0.56303 7.72526,-0.97126 10.5823,-0.90718 2.96408,0.0665 6.48526,-0.55091 8.20034,-1.43781 1.65315,-0.85488 4.71557,-1.55663 6.80538,-1.55946 3.96743,-0.005 26.78786,-4.56051 28.66768,-5.72231 2.05858,-1.27227 12.15906,-2.61333 18.46277,-2.45134 3.48194,0.0895 7.30694,-0.37749 8.5,-1.0377 1.19307,-0.66021 4.64421,-1.07264 7.66921,-0.91651 3.1833,0.16429 7.50121,-0.39658 10.25099,-1.33156 2.61305,-0.88848 6.66305,-1.56529 9,-1.50401 2.33696,0.0613 7.62401,-0.63506 11.74901,-1.54741 4.125,-0.91236 10.875,-1.99693 15,-2.41017 6.85092,-0.68632 12.46037,-1.73261 22,-4.10352 1.925,-0.47842 6.2,-1.12725 9.5,-1.44184 3.44942,-0.32884 7.07492,-1.3561 8.52866,-2.41653 1.78614,-1.30291 4.47001,-1.88664 9.14,-1.98791 6.50106,-0.14097 8.52442,-0.46706 22.15609,-3.57075 3.75361,-0.85464 7.81056,-1.30646 9.01545,-1.00405 1.57942,0.39641 3.00593,-0.3011 5.11234,-2.49971 2.26493,-2.36408 3.78591,-3.04954 6.76667,-3.04954 2.11476,0 5.3696,-0.63701 7.23296,-1.41557 1.91753,-0.80119 5.05016,-1.20357 7.21788,-0.92712 2.10647,0.26864 6.75495,-0.26112 10.32995,-1.17725 3.575,-0.91613 10.1,-2.3442 14.5,-3.1735 4.4,-0.8293 8.78139,-1.91253 9.73643,-2.40719 0.95504,-0.49465 3.02279,-0.89937 4.59501,-0.89937 1.58859,0 3.66271,-0.88855 4.66856,-2 0.99549,-1.1 3.01007,-2 4.47685,-2 1.46678,0 4.65953,-0.6164 7.09501,-1.36979 2.43548,-0.75338 8.02814,-2.14551 12.42814,-3.09361 4.4,-0.94811 8.9,-2.20873 10,-2.8014 1.1,-0.59266 4.475,-1.6325 7.5,-2.31076 5.58446,-1.25212 10.08678,-2.67676 15.5,-4.90457 1.65,-0.67906 5.475,-2.04415 8.5,-3.03353 3.025,-0.98939 8.2,-3.02147 11.5,-4.51575 3.3,-1.49428 6.7875,-2.98484 7.75,-3.31235 1.03726,-0.35295 1.75,-1.60729 1.75,-3.0798 0,-1.36638 0.51616,-3.61718 1.14702,-5.00177 0.85665,-1.88015 0.85943,-2.86397 0.011,-3.88631 -0.62483,-0.75288 -1.04885,-3.1287 -0.94228,-5.27961 0.10658,-2.15091 -0.16155,-12.91075 -0.59585,-23.91075 -0.67064,-16.98587 -1.60367,-84.854 -1.25104,-91 0.37248,-6.49206 -0.53879,-49.9091 -1.14389,-54.5 -0.70503,-5.34911 -0.81757,-5.50886 -4.10208,-5.82284 -1.85743,-0.17757 -3.85993,0.15993 -4.45,0.75 -0.59006,0.59006 -1.95991,1.07284 -3.0441,1.07284 -1.08419,0 -2.76129,0.71497 -3.72689,1.58882 -1.67334,1.51436 -5.84715,2.90758 -12.40185,4.13975 -1.65,0.31017 -4.022,1.23111 -5.2711,2.04653 -1.4606,0.95348 -3.63188,1.30006 -6.08411,0.97115 -2.09715,-0.28129 -4.54775,-0.10025 -5.44578,0.40231 -0.89802,0.50257 -3.45978,1.09551 -5.69279,1.31766 -2.23301,0.22215 -5.60336,1.35775 -7.48968,2.52355 -2.37578,1.46832 -6.42106,2.44471 -13.16463,3.1775 -7.41426,0.80567 -10.60542,1.63389 -13.38632,3.4742 -2.23202,1.47708 -4.32172,2.1591 -5.37593,1.75456 -0.94852,-0.36398 -2.70672,-0.17369 -3.90712,0.42286 -2.49419,1.23952 -7.47603,1.803 -27.18254,3.07456 -7.7,0.49685 -14.675,1.16401 -15.5,1.48259 -0.825,0.31858 -5.325,0.8391 -10,1.15671 -4.675,0.31761 -10.3,0.79506 -12.5,1.06099 -2.2,0.26593 -5.86612,0.45122 -8.14694,0.41175 -2.28082,-0.0395 -5.88082,0.58112 -8,1.3791 -6.14261,2.31299 -30.94919,6.19862 -45.10372,7.0649 -2.88786,0.17674 -6.41774,1.08606 -7.84419,2.0207 -1.42644,0.93464 -3.56364,1.46667 -4.74934,1.18229 -1.1857,-0.28438 -3.95581,0.18786 -6.15581,1.04943 -2.2,0.86157 -8.275,1.94494 -13.5,2.4075 -9.98578,0.88403 -17.22559,1.88208 -28,3.85996 -3.575,0.65627 -8.075,1.20136 -10,1.21132 -1.925,0.01 -4.24296,0.41536 -5.15101,0.90091 -0.90806,0.48555 -3.83306,1.13124 -6.5,1.43488 -15.494,1.76402 -22.67854,2.34896 -29.63111,2.41245 -4.46333,0.0408 -9.29962,0.70512 -11.34046,1.55784 -2.65878,1.11091 -4.06513,1.21555 -5.563,0.41391 -1.39384,-0.74596 -3.88006,-0.76878 -8.15954,-0.0749 -3.38518,0.54889 -9.75488,0.79067 -14.15488,0.5373 -16.58586,-0.9551 -57.1194,0.0919 -60.91231,1.57331 -4.41464,1.7243 -24.44687,2.87704 -39.58769,2.27805 -7.425,-0.29375 -17.55,-0.45671 -22.5,-0.36215 -15.42695,0.29471 -20.49882,0.0986 -23.10788,-0.89333 -1.73092,-0.65809 -3.20893,-0.58815 -4.70759,0.22277 -2.23857,1.21127 -12.09303,1.26644 -91.18453,0.51052 -24.48195,-0.23398 -35.65947,-0.69042 -37.19445,-1.51884 -1.20695,-0.65139 -7.63619,-1.47694 -14.2872,-1.83456 -6.65101,-0.35762 -12.32756,-1.03017 -12.61456,-1.49455 -0.28704,-0.46435 -1.61385,-0.8443 -2.9485,-0.8443 -2.89082,0 -9.62095,-1.51785 -18.22633,-4.11059 -3.44905,-1.03918 -8.09113,-1.88941 -10.31574,-1.88941 -2.22461,0 -5.02766,-0.52879 -6.229,-1.17509 -1.20134,-0.64629 -3.75926,-1.52615 -5.68426,-1.95524 -1.925,-0.42908 -4.79854,-1.08942 -6.38565,-1.46742 l -2.88565,-0.68727 0.63565,5.64251 c 0.34961,3.10338 0.9157,8.23001 1.25798,11.39251 0.34228,3.1625 0.97391,6.2 1.40362,6.75 0.42972,0.55 1.09463,3.7 1.47759,7 0.38296,3.3 1.1423,8.025 1.68743,10.5 0.54512,2.475 1.38564,7.875 1.86781,12 1.40516,12.02104 1.99779,15.36254 3.13611,17.68254 0.58897,1.2004 0.78753,2.9209 0.44123,3.82334 -0.3463,0.90244 0.31651,6.20672 1.47292,11.78727 1.341,6.47137 1.88393,11.74146 1.49898,14.55001 -0.381,2.77967 -0.0571,6.01304 0.87824,8.76812 0.815,2.40052 1.96547,11.90752 2.55661,21.12665 0.59113,9.21914 1.47933,18.01225 1.97376,19.54025 0.49444,1.52799 0.67494,3.36201 0.40111,4.0756 -0.82701,2.15514 1.38112,25.40187 2.63546,27.74563 0.64252,1.20056 1.3702,7.63183 1.61707,14.29171 0.28896,7.7957 0.89472,12.56325 1.7006,13.38448 0.68846,0.70158 4.14916,1.79962 7.69044,2.44009 3.63041,0.6566 7.78833,2.17198 9.53308,3.47441 2.3481,1.75281 4.41016,2.3099 8.55,2.3099 3.00059,0 5.98117,0.52556 6.62351,1.1679 0.89054,0.89054 2.14813,0.87423 5.29534,-0.0687 3.62426,-1.08586 4.36394,-1.02258 6.0674,0.51903 1.58357,1.43311 3.57571,1.72075 10.84378,1.56568 4.89709,-0.10448 9.14044,0.19292 9.42966,0.66089 0.28922,0.46797 4.92912,0.86042 10.31089,0.87212 6.14004,0.0134 13.34109,0.80001 19.33134,2.11182 5.25046,1.14981 10.49652,1.84207 11.6579,1.53836 1.16137,-0.30371 5.19054,-0.0114 8.95369,0.64949 3.76316,0.66093 8.95612,1.30299 11.53993,1.42681 2.58381,0.12382 5.28381,0.69522 6,1.26978 1.10439,0.886 61.20883,3.04965 67.05217,2.41377 4.2078,-0.45791 7.48729,-0.27283 10.75,0.60668 2.5389,0.68439 4.24151,0.5759 6.20034,-0.39508 1.67784,-0.8317 6.41104,-1.35518 12.5,-1.38246 z M 443.86901,595.88612 c 14.28646,-0.0243 20.51897,-0.38649 21.56507,-1.25317 1.10742,-0.91747 2.81559,-0.96369 6.90626,-0.18686 4.50827,0.85613 19.9751,1.11494 41.43492,0.69333 2.2,-0.0432 4.9,-0.0448 6,-0.004 1.1,0.0413 4.925,-0.18342 8.5,-0.49933 3.575,-0.31592 9.01939,-0.62257 12.09865,-0.68145 3.07925,-0.0589 6.22925,-0.60772 7,-1.21962 0.86666,-0.68806 4.07222,-0.93529 8.40135,-0.64797 8.37602,0.55591 8.52454,0.55359 15.5,-0.24234 8.62896,-0.9846 18.39974,-1.15802 19.53387,-0.3467 0.56863,0.40678 3.71863,0.27639 7,-0.28976 3.28137,-0.56615 12.49113,-1.40327 20.46613,-1.86026 7.975,-0.457 16.3,-1.37395 18.5,-2.03767 2.2,-0.66371 6.29703,-1.13409 9.10451,-1.04528 2.80749,0.0888 7.08249,-0.47363 9.5,-1.24987 2.41752,-0.77624 8.57763,-1.49929 13.68912,-1.60678 5.61996,-0.11819 10.72936,-0.79533 12.92572,-1.71303 4.0554,-1.69445 17.41983,-4.11185 27.19417,-4.91897 3.52744,-0.29127 7.12744,-0.89631 8,-1.34452 0.87256,-0.44821 3.02083,-0.84377 4.77393,-0.87901 1.75309,-0.0352 4.0916,-0.54797 5.19667,-1.13938 1.10508,-0.59142 4.62073,-1.01236 7.81256,-0.93542 7.44668,0.17951 13.53449,-0.60501 19.80332,-2.55202 2.75,-0.85411 6.73199,-1.5578 8.84887,-1.56376 2.11688,-0.006 5.26688,-0.64444 7,-1.41887 1.73312,-0.77442 9.35129,-2.06613 16.92926,-2.87046 10.11912,-1.07405 14.28513,-1.92126 15.6873,-3.1902 1.629,-1.47423 2.42836,-1.55643 5.44711,-0.56015 3.51363,1.1596 13.27306,0.2927 22.58746,-2.00638 1.925,-0.47515 6.72422,-1.11118 10.66494,-1.41341 3.94072,-0.30223 9.26552,-1.44992 11.83291,-2.55043 2.84325,-1.2183 6.88902,-2.00046 10.34986,-2.00046 3.77528,0 6.93666,-0.67251 9.42117,-2.00412 3.10279,-1.663 4.45126,-1.84415 7.92228,-1.06426 3.88197,0.87222 4.39914,0.72857 7.18577,-1.99588 3.33632,-3.26187 3.87124,-3.40848 6.772,-1.85604 1.56315,0.83658 2.41651,0.71856 3.78964,-0.52411 0.98718,-0.89338 2.50412,-1.32295 3.42453,-0.96975 0.90879,0.34874 2.75803,-0.0904 4.10944,-0.97589 1.3514,-0.88547 3.09649,-1.60995 3.87797,-1.60995 0.78148,0 2.70981,-0.67223 4.28518,-1.49384 1.57537,-0.82161 3.59692,-1.49661 4.49234,-1.5 0.89541,-0.003 2.26377,-0.96364 3.04079,-2.13389 1.30569,-1.96648 1.79274,-2.04624 6.4266,-1.05246 4.53209,0.97196 5.51202,0.83686 10.19865,-1.40608 3.72041,-1.78052 5.36822,-3.21216 5.83422,-5.06885 0.35718,-1.42313 0.37752,-8.94541 0.0452,-16.71619 -0.33231,-7.77078 -0.24714,-19.97869 0.18929,-27.12869 0.79731,-13.06241 0.0832,-19.50709 -2.15978,-19.4918 -7.59393,0.0518 -25.66684,3.27802 -28.203,5.03457 -2.58803,1.79246 -11.88746,3.98238 -20.5,4.82753 -9.71145,0.95299 -22.91602,3.49232 -26.5,5.09613 -1.84753,0.82676 -4.02054,1.13619 -18,2.56316 -7.27045,0.74214 -8.15501,0.94065 -9.64912,2.1655 -1.65039,1.35297 -11.88938,3.08351 -21.39047,3.61531 -3.87178,0.21671 -8.06253,0.94148 -9.31278,1.61059 -1.25025,0.66912 -3.53868,1.08383 -5.08539,0.92159 -1.54671,-0.16224 -3.43096,0.20063 -4.18722,0.80639 -0.75626,0.60575 -5.65002,1.42047 -10.87502,1.8105 -5.225,0.39002 -10.85,1.32718 -12.5,2.08259 -1.65,0.7554 -7.95,2.11706 -14,3.0259 -6.05,0.90884 -14.6,2.19573 -19,2.85976 -4.4,0.66404 -8.675,1.49532 -9.5,1.8473 -2.7289,1.16427 -12.40641,2.93181 -18.5,3.37891 -3.3,0.24213 -7.35,1.08315 -9,1.86892 -3.85751,1.83705 -20.91773,4.48528 -38.76807,6.01791 -3.17244,0.27238 -7.67244,1.10639 -10,1.85335 -6.17319,1.9811 -12.54858,3.40886 -18.23193,4.08301 -2.75,0.3262 -7.25,1.00262 -10,1.50316 -2.75,0.50053 -10.175,1.62622 -16.5,2.50153 -6.325,0.87531 -13.28518,1.98853 -15.46707,2.47384 -2.40384,0.53467 -4.66404,0.50936 -5.73579,-0.0642 -1.25275,-0.67045 -2.86678,-0.39459 -5.53292,0.94565 -3.92578,1.97345 -10.97122,2.77294 -34.67119,3.93434 -13.20677,0.64719 -15.90592,0.64029 -38.59303,-0.0985 -6.875,-0.22389 -12.95,-0.13268 -13.5,0.2027 -0.55,0.33537 -7.85598,0.66703 -16.23551,0.73702 -10.97033,0.0916 -15.52129,-0.2171 -16.25635,-1.10279 -0.56146,-0.67652 -2.10322,-1.02313 -3.42612,-0.77024 -1.79165,0.3425 -2.84847,-0.21659 -4.14247,-2.19149 -1.66034,-2.53399 -1.65131,-2.81491 0.20405,-6.34968 1.80424,-3.4374 2.32639,-3.7351 7.39882,-4.21841 3.00167,-0.28601 6.4375,-0.19703 7.63519,0.19772 1.65363,0.54504 22.53167,0.47108 29.82239,-0.10564 2.72103,-0.21525 29.17218,1.04665 30.3024,1.44562 0.71631,0.25286 2.36659,-0.23754 3.66729,-1.08978 1.93415,-1.26731 3.10775,-1.34951 6.44342,-0.45131 3.0103,0.81059 4.63836,0.79863 6.21597,-0.0457 1.25479,-0.67155 3.7838,-0.88065 6.12434,-0.50639 3.00411,0.48038 5.08914,0.10396 8.45823,-1.52699 3.88954,-1.88289 5.63971,-2.0979 13.45145,-1.65249 4.93908,0.28161 10.63542,0.0954 12.65852,-0.41381 2.02311,-0.50921 7.05338,-1.15282 11.17838,-1.43024 4.125,-0.27742 8.625,-0.89955 10,-1.3825 2.71132,-0.95232 11.26336,-2.09393 20,-2.66978 6.73355,-0.44383 13.74002,-1.70702 20.96793,-3.78029 3.00736,-0.86264 6.21476,-1.56843 7.12755,-1.56843 0.9128,0 2.19063,-0.63981 2.83963,-1.42181 0.87104,-1.04954 2.59556,-1.27571 6.58653,-0.8638 3.01144,0.31081 6.64069,0.0708 8.19245,-0.54175 1.53225,-0.60486 5.48591,-1.33692 8.78591,-1.62679 3.3,-0.28987 10.05,-1.24394 15,-2.12014 4.95,-0.87621 10.42756,-1.58987 12.17237,-1.58591 1.82708,0.004 3.40401,-0.59645 3.71861,-1.4163 0.30044,-0.78292 1.65882,-1.4235 3.01862,-1.4235 1.3598,0 2.71385,-0.39074 3.00901,-0.8683 0.29515,-0.47757 3.35921,-1.16505 6.80901,-1.52775 10.71802,-1.12683 21.22944,-2.91361 22.22238,-3.77746 0.5225,-0.45457 3.4475,-0.84609 6.5,-0.87004 5.34878,-0.042 9.00246,-0.63857 17.55,-2.8657 2.2,-0.57323 9.32529,-1.74794 15.83397,-2.61046 6.50868,-0.86252 12.58368,-1.9432 13.5,-2.4015 3.42387,-1.71248 8.98989,-2.96966 20.16603,-4.55485 6.325,-0.89711 12.85,-2.11248 14.5,-2.70082 1.65,-0.58833 6.29105,-1.6803 10.31344,-2.4266 4.02239,-0.74629 7.77818,-1.64413 8.3462,-1.99518 0.56801,-0.35105 4.92696,-0.70267 9.68656,-0.78137 7.08845,-0.11721 9.19646,-0.52966 11.6538,-2.28021 3.06689,-2.18476 10.34619,-3.72686 16.36793,-3.46748 1.85898,0.0801 4.8241,-0.75489 6.61804,-1.86361 1.82215,-1.12615 4.98975,-2.00867 7.20966,-2.00867 2.17775,0 6.7282,-1.125 10.11209,-2.5 3.3839,-1.375 6.98304,-2.5 7.9981,-2.5 1.01505,0 2.90243,-1.125 4.19418,-2.5 1.699,-1.8085 3.39048,-2.5 6.1153,-2.5 2.07166,0 4.01145,-0.39607 4.31063,-0.88015 0.29918,-0.48409 0.58808,-10.02532 0.64199,-21.20274 0.0898,-18.61509 -0.056,-20.43561 -1.73494,-21.66774 -1.01967,-0.74829 -2.7204,-1.0562 -3.83298,-0.69396 -1.1,0.35815 -4.925,1.17589 -8.5,1.8172 -3.575,0.64131 -9.425,2.55248 -13,4.24705 -6.2369,2.95633 -12.5099,4.5067 -20,4.94301 -1.925,0.11213 -9.79921,1.847 -17.49825,3.85526 -7.69904,2.00826 -16.69904,3.83734 -20,4.06462 -12.38288,0.85262 -18.05382,1.80007 -19.76405,3.30201 -1.53736,1.35013 -10.14059,2.62875 -23.83401,3.54224 -1.42796,0.0953 -3.22796,0.6697 -4,1.27654 -0.77203,0.60683 -5.00369,1.68171 -9.40369,2.38861 -4.4,0.70691 -8.4275,1.67291 -8.95,2.14667 -0.5225,0.47376 -2.40844,0.86138 -4.19098,0.86138 -1.78254,0 -3.5191,0.45 -3.85902,1 -0.33992,0.55 -2.13718,1 -3.99392,1 -1.85673,0 -4.64268,0.51525 -6.19098,1.14501 -1.54831,0.62975 -5.0651,1.54418 -7.8151,2.03207 -11.32032,2.00837 -14.25317,2.62693 -19.5,4.11269 -3.025,0.8566 -8.2,2.5225 -11.5,3.70199 -7.40225,2.64573 -12.94765,3.90774 -17.42126,3.96469 -1.88169,0.0239 -4.13169,0.62543 -5,1.33661 -2.44828,2.00525 -8.87888,3.90515 -10.97066,3.24124 -2.07847,-0.65968 -16.45296,2.04472 -19.48059,3.66506 -1.05169,0.56285 -3.53561,1.17593 -5.51982,1.3624 -4.62346,0.4345 -25.23679,3.92064 -31.10767,5.26095 -12.09571,2.76142 -30.90244,5.33758 -35.24829,4.82833 -2.75455,-0.32278 -6.6163,0.006 -9.19712,0.78249 -2.44685,0.7364 -4.64837,1.13936 -4.89225,0.89548 -0.24389,-0.24389 -5.27586,0.48913 -11.18216,1.62893 -7.97356,1.53874 -11.08362,1.78614 -12.0781,0.96079 -0.98501,-0.81748 -3.17213,-0.78404 -8.26665,0.1264 -4.28371,0.76554 -11.54507,1.0478 -19.02776,0.73962 -9.35531,-0.38529 -12.35197,-0.19531 -13.20907,0.83744 -0.84156,1.014 -1.60062,1.07247 -3.15107,0.24269 -1.47086,-0.78718 -3.05357,-0.79016 -5.65537,-0.0106 -1.98709,0.59535 -9.90823,1.16543 -17.60253,1.26685 -12.34039,0.16266 -14.14368,0.40217 -15.29633,2.03165 -1.65985,2.34649 -5.99119,2.3428 -9.04728,-0.008 -1.65838,-1.2755 -2.50555,-3.15514 -2.86688,-6.36089 -0.7732,-6.85983 1.57036,-8.75631 10.97086,-8.87796 3.9875,-0.0516 11.48476,-0.23799 16.66058,-0.41419 5.17582,-0.17621 10.43236,0.0681 11.6812,0.54291 1.54086,0.58583 4.46215,0.2244 9.08942,-1.12456 5.72431,-1.66878 7.40645,-1.80014 10.4799,-0.81838 2.18227,0.69709 4.80782,0.84963 6.5,0.37764 1.5614,-0.43552 4.1889,-0.87965 5.8389,-0.98697 1.65,-0.10732 8.94547,-0.73476 16.21216,-1.39431 9.82919,-0.89213 13.75113,-0.91074 15.31706,-0.0727 1.65103,0.8836 2.62191,0.78774 4.50265,-0.44457 1.77332,-1.16192 5.0763,-1.5825 12.68295,-1.61496 6.33046,-0.027 11.82321,-0.59799 14.28518,-1.48495 2.2,-0.79257 6.26237,-1.44782 9.02749,-1.4561 2.78046,-0.008 5.96521,-0.67186 7.12552,-1.48457 1.15391,-0.80823 3.39154,-1.47575 4.9725,-1.48337 6.4343,-0.031 11.94687,-0.60955 13.1502,-1.38007 0.70164,-0.44927 3.85164,-1.06913 7,-1.37746 3.14836,-0.30833 6.22237,-0.95125 6.83113,-1.42873 0.60876,-0.47747 2.40876,-0.619 4,-0.31452 1.87488,0.35876 4.28743,-0.1679 6.8546,-1.49637 2.17879,-1.12748 5.18974,-2.04997 6.69098,-2.04997 1.50125,0 3.00766,-0.45 3.34758,-1 0.33992,-0.55 2.95398,-1.01074 5.80902,-1.02386 2.85504,-0.0131 6.99098,-0.49304 9.19098,-1.06649 9.71743,-2.53292 16.321,-4.06308 25.5,-5.90878 3.025,-0.60827 7.4076,-1.9823 9.7391,-3.0534 2.33151,-1.07111 5.05401,-1.94747 6.05,-1.94747 0.996,0 2.2384,-0.41683 2.7609,-0.9263 0.5225,-0.50946 4.55,-1.05551 8.95,-1.21343 5.336,-0.19151 8.8325,-0.83473 10.5,-1.93158 1.375,-0.90445 5.65,-1.95308 9.5,-2.33029 3.85,-0.37721 8.80216,-1.55289 11.00479,-2.61262 2.24326,-1.07928 4.96727,-1.6751 6.19294,-1.35457 1.20348,0.31471 3.63296,-0.14856 5.39884,-1.0295 1.76589,-0.88094 4.2923,-1.60171 5.61425,-1.60171 3.04371,0 11.45433,-2.02974 12.83527,-3.09754 0.57534,-0.44489 1.92534,-0.82285 3,-0.83992 4.89529,-0.0778 9.39001,-0.97779 14.67893,-2.9393 3.14876,-1.16778 6.6097,-2.12324 7.69098,-2.12324 1.08128,0 2.26662,-0.48646 2.63408,-1.08103 0.37273,-0.60309 1.76743,-0.80511 3.15467,-0.45694 1.36761,0.34325 3.00601,0.19725 3.6409,-0.32445 3.8,-3.1225 17.10504,-4.78122 21.81409,-2.71953 1.6739,0.73285 7.16302,-1.51323 8.33586,-3.41094 0.34234,-0.55391 2.73338,-1.00879 5.31342,-1.01085 2.89035,-0.002 5.92255,-0.75467 7.89946,-1.96005 1.76466,-1.07597 5.58966,-2.26189 8.5,-2.63537 2.91033,-0.37349 7.48087,-1.53033 10.15673,-2.57077 2.67587,-1.04044 5.7065,-1.6247 6.73473,-1.29835 1.15265,0.36584 3.12158,-0.33989 5.13479,-1.84048 1.7959,-1.3386 5.28567,-2.6884 7.75505,-2.99954 2.75646,-0.34731 5.11179,-1.33386 6.10096,-2.55543 0.88615,-1.09435 3.36575,-2.30637 5.51022,-2.69339 6.25155,-1.12822 6.56691,-1.72766 6.51453,-12.38275 -0.0259,-5.25807 0.0501,-14.28513 0.16875,-20.06013 l 0.21576,-10.49977 -3.5,0.13185 c -6.8322,0.25738 -13.80509,1.22669 -15.63962,2.17407 -4.63144,2.39176 -7.26393,3.09397 -12.86038,3.43044 -3.3,0.1984 -7.53164,1.12638 -9.40364,2.06218 -1.872,0.9358 -4.4656,1.70146 -5.76357,1.70146 -1.29796,0 -3.14132,0.39446 -4.09636,0.87658 -3.95929,1.99871 -22.09903,7.10575 -26.73643,7.52734 -9.00256,0.81843 -18.79903,2.69936 -21.59821,4.14686 -4.77159,2.46749 -11.64764,4.48398 -13.22543,3.87852 -0.83604,-0.32082 -2.48592,-0.0664 -3.66639,0.56536 -1.18047,0.63177 -4.63203,1.33763 -7.67014,1.56859 -3.03811,0.23095 -7.52316,1.0987 -9.96678,1.92833 -2.44362,0.82963 -5.88972,1.52817 -7.658,1.55231 -1.76828,0.0241 -4.98529,0.67456 -7.14893,1.44538 -2.16363,0.77081 -4.29183,1.18025 -4.72933,0.90986 -0.4375,-0.27039 -1.68927,-0.0133 -2.78171,0.57139 -1.09244,0.58466 -5.71424,1.55248 -10.27067,2.15071 -4.55643,0.59823 -9.63441,1.67363 -11.28441,2.38976 -1.65,0.71614 -5.00267,1.58887 -7.45039,1.9394 -2.44771,0.35053 -5.04343,1.12952 -5.76828,1.73109 -1.69884,1.40991 -8.79428,2.93277 -13.28133,2.85051 -1.925,-0.0353 -5.96865,0.84308 -8.98588,1.95192 -3.01724,1.10885 -6.47818,2.01609 -7.69099,2.01609 -1.2128,0 -2.48321,0.45 -2.82313,1 -0.33992,0.55 -2.43959,1 -4.66594,1 -4.97247,0 -17.41412,2.70647 -20.90787,4.54816 -1.41559,0.74621 -3.48472,1.11854 -4.59807,0.8274 -1.11334,-0.29115 -3.72258,0.18024 -5.79831,1.04754 -2.07573,0.86729 -5.8566,1.60372 -8.40193,1.63651 -2.54534,0.0328 -6.87788,0.50345 -9.62788,1.04591 -2.75,0.54247 -7.25,1.43245 -10,1.97773 -2.75,0.54528 -8.6,1.44953 -13,2.00944 -4.4,0.55992 -9.92823,1.66812 -12.28495,2.46267 -2.35672,0.79455 -5.60643,1.44464 -7.22158,1.44464 -1.61514,0 -6.21192,0.66283 -10.21505,1.47296 -4.00313,0.81013 -11.10342,2.22441 -15.77842,3.14285 -4.675,0.91844 -15.7,2.00408 -24.5,2.41254 -8.8,0.40846 -20.725,1.41515 -26.5,2.2371 -5.775,0.82195 -16.81676,1.80025 -24.53723,2.17401 -7.72048,0.37375 -17.2061,1.21527 -21.07916,1.87004 -7.1185,1.20345 -23.58584,0.82943 -24.97749,-0.56729 -0.41527,-0.41679 -0.33903,-2.42423 0.16942,-4.46098 0.80882,-3.23995 1.48737,-3.88147 5.42446,-5.12847 2.475,-0.78391 9.225,-1.75687 15,-2.16213 5.775,-0.40526 12.3,-1.21475 14.5,-1.79886 2.2,-0.58411 8.02497,-1.33371 12.94438,-1.66577 4.91941,-0.33207 9.49185,-1.05811 10.16098,-1.61344 0.8224,-0.68253 1.4271,-0.66906 1.8663,0.0416 0.4107,0.66453 1.27133,0.71858 2.33947,0.14693 1.65215,-0.8842 12.72324,-2.26562 18.68887,-2.33194 7.11663,-0.0791 24.32633,-2.08682 28,-3.26651 6.52604,-2.09565 12.18504,-2.60326 14.95451,-1.3414 1.87437,0.85402 3.16455,0.8751 4.80403,0.0785 3.70354,-1.79948 7.771,-2.486 17.42466,-2.941 6.31876,-0.29782 9.55416,-0.8798 10.37245,-1.86578 0.65408,-0.78812 2.37461,-1.43295 3.8234,-1.43295 1.44878,0 4.20618,-0.50269 6.12755,-1.11709 5.1518,-1.6474 13.7752,-2.88241 19.74568,-2.8279 3.64032,0.0332 6.73495,-0.69675 10.08329,-2.37853 2.65706,-1.33456 5.94496,-2.42648 7.30645,-2.42648 3.8064,0 16.99796,-2.31626 20.35435,-3.57396 1.64801,-0.61753 5.02301,-1.21055 7.5,-1.31782 5.75676,-0.24932 10.92176,-1.21104 13.65502,-2.54257 1.18326,-0.57643 2.75826,-0.83157 3.5,-0.56698 0.74173,0.26459 2.2362,0.0225 3.32104,-0.53802 1.08483,-0.5605 3.33483,-1.09654 5,-1.19119 1.66516,-0.0947 6.85257,-1.63372 11.52757,-3.42016 5.72994,-2.18955 10.09532,-3.21616 13.39528,-3.15017 3.27077,0.0654 5.50455,-0.45349 6.73124,-1.56363 1.47141,-1.33161 2.12884,-1.41846 3.31092,-0.43742 0.81122,0.67325 2.02248,0.88571 2.69169,0.47211 1.374,-0.84917 6.59995,-2.00573 15.24411,-3.37368 3.28289,-0.51952 6.81124,-1.77981 8,-2.85751 1.53839,-1.39467 4.2453,-2.0968 9.78462,-2.53799 6.95877,-0.55424 9.05341,-1.0669 15.34214,-3.7549 1.1,-0.47017 4.38798,-1.05699 7.30662,-1.30403 2.91864,-0.24705 7.12232,-1.39557 9.3415,-2.55227 3.4937,-1.82102 4.47765,-1.94299 7.33608,-0.90936 2.91732,1.05492 3.74972,0.92261 7.1585,-1.13777 3.74627,-2.26439 6.26714,-2.86815 20.77097,-4.97476 3.80252,-0.5523 7.62752,-1.62243 8.5,-2.37807 0.87248,-0.75563 3.51848,-1.66719 5.88,-2.02567 4.27419,-0.64883 4.92866,-0.88704 10.78014,-3.92385 1.69059,-0.87738 4.05145,-1.33958 5.24634,-1.02711 1.1949,0.31247 3.70469,-0.15892 5.57732,-1.04754 1.87264,-0.88863 4.54772,-1.61568 5.94464,-1.61568 1.39692,0 2.81797,-0.45 3.15789,-1 0.33992,-0.55 2.1562,-1 4.03619,-1 1.87998,0 6.44161,-1.13803 10.13695,-2.52895 3.69533,-1.39092 8.33988,-2.43329 10.32122,-2.31638 5.55692,0.32788 6.34815,-0.60939 5.51639,-6.5346 -0.3953,-2.81604 -0.80123,-7.01187 -0.90207,-9.32406 -0.10083,-2.3122 -0.50894,-4.5296 -0.9069,-4.92756 -0.39796,-0.39796 -0.43568,-2.89366 -0.0838,-5.54601 l 0.63968,-4.82245 -3.87883,-0.11842 c -4.86735,-0.1486 -3.91362,-0.31603 -12.5451,2.20227 -4.7876,1.39683 -10.54748,2.20054 -16.59044,2.31498 -8.31373,0.15745 -9.4146,0.40073 -10.8067,2.38824 -1.39895,1.99728 -2.4029,2.21293 -10.30216,2.21293 -6.14737,0 -9.32989,0.43696 -10.6933,1.4682 -1.06762,0.8075 -3.99262,1.4825 -6.5,1.5 -2.50738,0.0175 -5.43238,0.69249 -6.5,1.5 -1.06762,0.8075 -3.29113,1.48738 -4.94113,1.51082 -1.65,0.0235 -5.25,0.72925 -8,1.56846 -2.75,0.8392 -5.96101,1.28868 -7.13558,0.99884 -1.2376,-0.3054 -2.65565,0.0997 -3.37244,0.96335 -0.71152,0.85732 -2.90434,1.49033 -5.16273,1.49033 -2.15922,0 -5.76898,0.8905 -8.02168,1.97888 -4.21791,2.03788 -17.66688,6.02112 -20.32963,6.02112 -0.82485,0 -3.40733,0.85847 -5.73884,1.90771 -4.16993,1.87658 -6.25497,2.45425 -14.27567,3.9551 -2.22011,0.41544 -4.64393,1.13071 -5.38626,1.5895 -1.25874,0.77794 -6.82185,1.66571 -20.03496,3.19721 -3.00178,0.34793 -6.82678,1.46744 -8.5,2.4878 -1.67321,1.02036 -4.25315,1.85689 -5.73319,1.85894 -1.48004,0.002 -2.99408,0.49415 -3.36452,1.09355 -0.40276,0.65167 -2.01343,0.83844 -4.00634,0.46457 -2.07118,-0.38856 -4.72389,-0.044 -7.00761,0.91019 -2.02114,0.84449 -4.7593,1.53543 -6.08479,1.53543 -1.3255,0 -3.97587,0.65426 -5.88971,1.45392 -3.69892,1.5455 -8.69772,1.89385 -22.56839,1.5727 -5.49976,-0.12734 -10.19975,0.33954 -13.00461,1.29181 -2.71565,0.92199 -6.19882,1.28759 -9.12493,0.95777 -3.49705,-0.39416 -6.00641,0.0145 -9.61135,1.56532 -2.68328,1.15431 -8.2015,2.57542 -12.26273,3.15801 -4.06122,0.58259 -10.08404,1.78592 -13.38404,2.67405 -3.3,0.88814 -8.925,2.19283 -12.5,2.89931 -3.575,0.70648 -8.5187,1.72559 -10.986,2.26469 -2.69581,0.58903 -5.15727,0.62093 -6.16814,0.0799 -1.78619,-0.95594 -7.6123,-0.20739 -9.43511,1.21224 -0.59909,0.46658 -2.84909,0.81958 -5,0.78445 -4.10293,-0.067 -14.84506,1.45732 -17.41075,2.47062 -2.69771,1.06544 -28.00123,4.62438 -36,5.0634 -2.475,0.13584 -5.91966,0.56691 -7.6548,0.95793 -1.90861,0.43011 -3.41322,0.2928 -3.80902,-0.3476 -0.87772,-1.42018 -9.12316,-1.34996 -11.83389,0.10078 -1.19143,0.63763 -6.44935,1.79208 -11.68426,2.56544 -10.8534,1.60338 -9.63244,1.53554 -25.51803,1.41795 -20.46433,-0.15147 -33.22922,0.3914 -34.64341,1.47334 -0.87971,0.67303 -4.87184,0.78342 -11.35659,0.31404 -5.5,-0.39811 -11.95906,-0.36964 -14.35346,0.0633 -2.39441,0.4329 -7.32649,0.41838 -10.96018,-0.0323 -3.63369,-0.45064 -6.94377,-0.61103 -7.35574,-0.35642 -1.02348,0.63255 -13.62992,2.53469 -17.33062,2.61495 -4.6204,0.10022 -13.85948,-1.38399 -15.20566,-2.44271 -0.66311,-0.52151 -5.16311,-0.86908 -10,-0.77236 -17.30863,0.3461 -49.00711,-0.74444 -50.79982,-1.74769 -1.00447,-0.56213 -3.43916,-0.81397 -5.41042,-0.55964 -1.97125,0.25433 -8.0841,-0.0633 -13.5841,-0.70593 -5.5,-0.64258 -10.675,-1.14181 -11.5,-1.10939 -0.825,0.0324 -4.875,0.22274 -9,0.42293 -4.125,0.20019 -8.625,-0.0807 -10,-0.62418 -1.375,-0.54348 -4.075,-1.13311 -6,-1.31028 -1.925,-0.17718 -5.3,-0.50989 -7.5,-0.73937 -2.2,-0.22948 -8.95,-0.92679 -15,-1.54956 -6.05,-0.62277 -12.8,-1.65509 -15,-2.29403 -2.2,-0.63895 -7.15,-1.19061 -11,-1.22592 -3.85,-0.0353 -7.675,-0.50256 -8.5,-1.03834 -0.825,-0.53577 -4.425,-1.30222 -8,-1.70321 -3.575,-0.40099 -8.71215,-1.19988 -11.41588,-1.7753 -2.70373,-0.57542 -5.06115,-0.90095 -5.2387,-0.7234 -0.17755,0.17755 1.04802,2.48441 2.72349,5.12636 l 3.04632,4.80354 -2.45373,5.18234 c -2.11438,4.46565 -2.3894,6.20956 -1.98863,12.61008 0.25581,4.08525 0.67118,7.63382 0.92306,7.8857 0.25189,0.25188 5.50834,0.53063 11.68102,0.61945 6.17268,0.0888 12.42445,0.65183 13.89282,1.25113 1.46837,0.5993 7.99337,1.17477 14.5,1.27883 6.50663,0.10405 12.26011,0.43757 12.78553,0.74115 0.52541,0.30358 4.35041,0.68062 8.5,0.83786 4.14958,0.15724 10.4697,0.49204 14.0447,0.744 15.58316,1.09824 31.5188,1.40736 32.89347,0.63805 0.92347,-0.5168 2.37097,-0.25735 3.80447,0.68191 1.90244,1.24653 2.83312,1.30102 5.23424,0.30644 1.75081,-0.72521 3.851,-0.89041 5.2441,-0.41249 1.27805,0.43844 7.27372,0.86685 13.32372,0.95202 32.22279,0.45359 36.5,1.36768 36.5,7.80045 0,5.76168 -2.62948,7.1085 -13.99713,7.16935 -6.00473,0.0321 -10.35645,0.51114 -11.22998,1.2361 -0.98545,0.81785 -2.32957,0.89738 -4.34953,0.25734 -5.55478,-1.76006 -19.19268,-2.79976 -24.37343,-1.85813 -3.07685,0.55924 -7.03829,0.55646 -10.13896,-0.007 -2.94247,-0.53481 -8.23516,-0.57214 -12.54777,-0.0885 -4.33,0.48559 -8.38252,0.45531 -9.66097,-0.0722 -2.58681,-1.06733 -21.09271,-3.18369 -31.39284,-3.59014 -3.95483,-0.15606 -11.74498,-1.24292 -17.31144,-2.41524 -5.56645,-1.17232 -11.365,-1.85823 -12.88566,-1.52423 -1.52066,0.33399 -4.08052,0.0952 -5.68857,-0.53074 -1.60804,-0.62589 -5.32201,-1.47401 -8.25326,-1.88471 -4.76206,-0.66721 -5.47315,-0.52382 -6.67813,1.34669 -1.02809,1.59591 -1.11507,3.16286 -0.36599,6.59342 0.54042,2.475 0.95059,5.74191 0.91149,7.2598 -0.0391,1.51789 0.58774,3.76789 1.39298,5 0.80525,1.23211 1.6438,4.53413 1.86345,7.33783 0.21965,2.80369 0.76355,5.6869 1.20868,6.40712 0.44512,0.72022 0.76114,2.70129 0.70228,4.40237 -0.0589,1.70108 0.70794,5.56788 1.70401,8.59288 l 1.81103,5.5 14.88987,-0.26966 c 8.18943,-0.14831 15.56487,-0.27915 16.38987,-0.29076 0.825,-0.0116 2.85,0.25542 4.5,0.5934 1.65,0.33797 4.35,0.0512 6,-0.63729 1.92701,-0.80407 9.43791,-1.34775 21,-1.5201 17.27282,-0.25747 30.4685,-0.8529 39,-1.7598 7.20372,-0.76576 66.6383,-1.70667 68.59412,-1.08592 5.21362,1.65474 4.28994,10.17114 -1.42741,13.16084 -2.65069,1.38609 -6.51022,1.65361 -23.68514,1.64172 -13.12085,-0.009 -21.26776,-0.41523 -22.59681,-1.12651 -1.39256,-0.74528 -2.41001,-0.78067 -3.08343,-0.10725 -1.96999,1.96999 -18.81254,4.03706 -32.30133,3.96431 -7.425,-0.04 -15.13585,0.32037 -17.13521,0.80091 -2.11714,0.50885 -5.87557,0.4896 -9,-0.0461 -5.17432,-0.88714 -19.75012,-0.99005 -45.73533,-0.3229 -14.09749,0.36194 -16.43485,1.34467 -14.30681,6.01521 0.64754,1.4212 1.17735,3.66126 1.17735,4.97793 0,1.31666 0.49848,2.702 1.10772,3.07854 0.70264,0.43425 0.86744,2.18727 0.45067,4.79365 -0.82352,5.15001 1.32409,21.65498 3.06649,23.56678 1.10262,1.20981 2.0292,1.22851 6.08784,0.12285 4.82302,-1.3139 27.60825,-1.58756 29.60171,-0.35553 1.98213,1.22502 15.65555,1.41885 25.179,0.35693 7.01947,-0.78272 11.43381,-0.77419 16.05777,0.031 4.58583,0.79859 8.28306,0.81103 13.16291,0.0443 3.73224,-0.58641 13.51088,-1.33579 21.73032,-1.66527 8.21943,-0.32949 15.69864,-1.00271 16.62045,-1.49605 1.06837,-0.57178 3.90846,-0.33044 7.83342,0.66563 5.38541,1.36671 6.43598,1.3818 8.37954,0.1203 3.36133,-2.18172 7.55978,-2.6628 14.20812,-1.62804 7.10152,1.1053 9.51404,3.34502 9.51404,8.83263 0,5.42012 -2.38046,7.15944 -9.62943,7.03591 -13.0765,-0.22284 -19.08411,0.15821 -23.85719,1.51323 -4.90895,1.39358 -8.25832,1.57197 -27.51338,1.46536 -5.225,-0.0289 -16.475,0.28855 -25,0.7055 -8.525,0.41695 -16.175,0.65485 -17,0.52867 -6.29058,-0.96214 -9.80341,-0.80912 -12.09164,0.52671 -2.33688,1.36422 -2.9436,1.34593 -6.172,-0.18604 -2.86814,-1.36103 -4.01406,-1.46689 -5.76059,-0.53217 -1.19913,0.64175 -3.14673,0.87809 -4.328,0.5252 -1.18127,-0.35289 -5.07277,-0.858 -8.64777,-1.12245 -3.575,-0.26445 -10.40649,-1.20122 -15.18109,-2.0817 -12.34115,-2.27583 -12.09451,-2.49916 -11.50654,10.41852 0.58749,12.90687 1.26085,19.38088 2.66967,25.66731 0.58057,2.59064 0.83516,5.06691 0.56575,5.50283 -0.26941,0.43592 -0.004,2.31914 0.58969,4.18495 0.59374,1.8658 1.15057,4.51737 1.23739,5.89237 0.14279,2.26145 0.53307,2.4768 4.09003,2.2569 4.36291,-0.26972 11.01688,2.48906 13.7762,5.71171 1.38658,1.61942 2.94616,2.03139 7.6901,2.03139 3.27292,0 6.19638,0.39741 6.49657,0.88313 0.30019,0.48571 3.13925,1.20624 6.30901,1.60117 3.16977,0.39492 6.58124,1.15468 7.58105,1.68836 0.99981,0.53367 7.13776,1.06693 13.63991,1.18501 8.41513,0.15283 12.30948,0.61922 13.51337,1.61835 1.36496,1.13282 2.07253,1.16557 3.66714,0.16972 1.97211,-1.23161 4.30146,-0.8292 11.77188,2.03367 2.80433,1.0747 43.52552,2.75391 53.08987,2.18925 7.868,-0.4645 9.24087,-0.45631 15,0.0895 2.475,0.23457 15.1935,0.60844 28.26333,0.83083 13.06984,0.22239 24.07133,0.71234 24.44777,1.08878 0.37644,0.37643 1.38294,0.34832 2.23667,-0.0625 0.85372,-0.41079 10.59442,-0.76229 21.64598,-0.78109 z M 397.77526,339.73688 c 4.95,-0.37003 15.34229,-0.72051 23.09399,-0.77887 9.32771,-0.0702 14.58262,-0.51097 15.5389,-1.30334 1.08062,-0.8954 2.50683,-0.92771 5.65676,-0.12817 3.16183,0.80255 4.57468,0.76794 5.66729,-0.13884 0.8005,-0.66436 1.98403,-0.88124 2.63007,-0.48196 1.63295,1.00921 16.07195,1.30378 17.95489,0.36629 1.664,-0.82849 28.71989,-2.13648 40.9581,-1.98009 4.125,0.0527 11.55,-0.6061 16.5,-1.46403 4.95,-0.85793 10.8,-1.71779 13,-1.9108 2.2,-0.19301 6.79266,-0.86533 10.20591,-1.49405 4.86836,-0.89674 6.64109,-0.87134 8.22504,0.11785 1.59329,0.99503 2.27748,1.00262 3.24409,0.036 0.67373,-0.67373 2.2334,-1.22496 3.46594,-1.22496 1.23254,0 2.49272,-0.40731 2.80039,-0.90514 0.30767,-0.49782 3.15975,-0.66934 6.33794,-0.38115 4.55768,0.41327 6.06239,0.18195 7.12206,-1.09487 0.82243,-0.99096 2.87295,-1.61884 5.28682,-1.61884 2.16881,0 4.92621,-0.55465 6.12755,-1.23257 1.20134,-0.67791 5.55926,-1.26818 9.68426,-1.31172 4.6357,-0.0489 9.21651,-0.75422 11.99458,-1.84677 3.77185,-1.48339 5.0734,-1.57659 8.09429,-0.57961 4.09672,1.35204 22.43089,-0.14909 24.26883,-1.98703 0.57327,-0.57327 2.64615,-1.0423 4.60642,-1.0423 1.96026,0 6.03276,-0.94732 9.05,-2.10515 3.01723,-1.15784 7.06088,-2.71308 8.98588,-3.45611 1.925,-0.74302 4.4375,-1.37071 5.58333,-1.39485 1.14584,-0.0241 2.39174,-0.35229 2.76867,-0.72923 1.97525,-1.97525 7.84047,-3.06828 10.69095,-1.99235 2.27214,0.85764 3.70982,0.80596 6.20705,-0.22311 1.7875,-0.7366 7.525,-1.4703 12.75,-1.63045 22.4371,-0.68769 31.36507,-1.47794 33.65602,-2.97902 1.3667,-0.8955 5.17233,-1.6326 9.27198,-1.79586 4.74877,-0.18911 7.53212,-0.8003 8.77759,-1.92743 1.25287,-1.13384 5.2367,-1.99767 12.72642,-2.75952 7.39937,-0.75267 11.73251,-1.68528 13.48531,-2.9024 1.68423,-1.16951 6.86684,-2.35515 14.89783,-3.40821 6.77334,-0.88816 13.70497,-2.30816 15.40364,-3.15557 1.69867,-0.84741 3.93518,-1.54074 4.97003,-1.54074 1.03485,0 2.87821,-0.62115 4.09636,-1.38033 1.21815,-0.75918 4.44664,-1.6635 7.17442,-2.0096 2.72778,-0.34609 5.40528,-1.07495 5.95,-1.61967 0.54472,-0.54472 1.9129,-0.99718 3.0404,-1.00546 3.09936,-0.0228 9.21474,-2.37156 11.45629,-4.40013 1.36816,-1.23817 3.96397,-1.90017 8.29264,-2.11482 3.46559,-0.17185 8.27015,-1.02291 10.6768,-1.89123 2.40665,-0.86832 5.41759,-1.57876 6.69098,-1.57876 1.27339,0 2.59439,-0.45165 2.93556,-1.00367 0.34116,-0.55202 1.63208,-0.74973 2.86871,-0.43936 1.23662,0.31038 4.24654,-0.13142 6.68871,-0.98177 2.44217,-0.85035 5.36281,-1.55264 6.49031,-1.56065 1.1275,-0.008 2.4775,-0.41332 3,-0.90071 1.493,-1.39267 11.52714,-4.02147 13.07816,-3.42629 0.76852,0.29491 2.04498,-0.001 2.83659,-0.65829 0.7916,-0.65697 2.35684,-0.90327 3.47831,-0.54733 1.12148,0.35594 2.60557,0.28062 3.29799,-0.16738 0.69242,-0.448 3.50895,-0.85687 6.25895,-0.90859 7.56084,-0.14221 12.61401,-1.37986 16.62519,-4.07195 3.53862,-2.37492 3.64222,-2.62815 4.33788,-10.60312 0.39198,-4.49355 1.36536,-9.43221 2.16306,-10.9748 0.79771,-1.5426 1.35579,-3.35628 1.24018,-4.0304 -0.35671,-2.08002 1.21897,-13.05935 2.3286,-16.22569 1.27201,-3.62967 1.98402,-20.27138 0.89607,-20.94377 -0.42606,-0.26332 -3.65833,1.50246 -7.18282,3.92395 -9.74708,6.69672 -20.95972,12.00873 -33.90816,16.06406 -4.675,1.46417 -9.21043,3.29069 -10.07874,4.05894 -0.86831,0.76825 -2.72012,1.39682 -4.11514,1.39682 -1.39502,0 -3.62748,0.85824 -4.96101,1.9072 -1.33354,1.04896 -4.65672,2.229 -7.38486,2.62233 -2.72814,0.39332 -5.63525,1.30002 -6.46025,2.01489 -0.825,0.71487 -2.85,1.62207 -4.5,2.016 -1.65,0.39394 -3.9,1.208 -5,1.80903 -2.42174,1.32321 -4.93531,1.783 -9.26745,1.69521 -3.33705,-0.0676 -13.172,2.44803 -21.22115,5.42808 -2.53004,0.9367 -5.73391,1.41276 -7.34259,1.09102 -1.62361,-0.32472 -5.3113,0.23589 -8.55393,1.30039 -3.13497,1.02916 -9.0558,2.20179 -13.15741,2.60584 -7.58484,0.7472 -16.26751,2.35625 -27.95747,5.18102 -3.575,0.86386 -8.525,1.63124 -11,1.70529 -2.475,0.074 -5.06152,0.49562 -5.74782,0.93684 -1.38132,0.88803 -10.15127,1.99597 -14.61289,1.8461 -1.57339,-0.0529 -4.13854,0.56469 -5.70034,1.37233 -1.81513,0.93864 -5.77836,1.46843 -10.985,1.46843 -5.21805,0 -9.09928,0.52002 -10.79966,1.44697 -2.49555,1.36042 -6.52848,1.87638 -35.15429,4.49751 -6.325,0.57915 -15.4055,1.53618 -20.17888,2.12674 -4.77339,0.59056 -12.95723,1.28871 -18.18632,1.55146 -5.22908,0.26274 -11.89858,0.91886 -14.82111,1.45804 -15.13908,2.79302 -24.32814,3.97852 -34.30052,4.42519 -24.66924,1.10494 -31.13758,1.49839 -33.70895,2.05043 -1.48268,0.31832 -8.68268,0.58526 -16,0.5932 -10.64071,0.0116 -13.80472,0.34332 -15.80422,1.65714 -1.57463,1.03464 -4.90596,1.7062 -9,1.8143 -3.575,0.0944 -8.75,0.47367 -11.5,0.84284 -2.75,0.36917 -9.95,0.89487 -16,1.16822 -6.05,0.27335 -13.7,0.65882 -17,0.85659 -3.3,0.19777 -16.125,0.60417 -28.5,0.90311 -29.91883,0.72275 -45.17528,1.45119 -47,2.2441 -0.825,0.35849 -13.72838,0.72866 -28.67417,0.82261 -20.30387,0.12762 -27.56151,0.49226 -28.7062,1.44227 -0.84261,0.6993 -2.03967,0.95771 -2.66014,0.57424 -0.62046,-0.38346 -4.57768,-0.8561 -8.7938,-1.05029 -4.21613,-0.1942 -11.26569,-0.74982 -15.66569,-1.23471 -4.4,-0.4849 -12.19814,-0.57737 -17.3292,-0.2055 -5.13106,0.37188 -12.78106,0.29347 -17,-0.17422 -21.11279,-2.34051 -25.72818,-2.68112 -38.95088,-2.87453 -7.85405,-0.11488 -14.55071,0.0618 -14.88148,0.39252 -0.33078,0.33077 -1.55474,0.0879 -2.71992,-0.53969 -2.16092,-1.16393 -14.10973,-3.46263 -23.11852,-4.44752 -2.75,-0.30065 -5.58645,-1.02534 -6.30322,-1.61044 -1.28359,-1.04778 -6.85226,-2.33741 -14.69678,-3.40357 -2.2,-0.29901 -4.7546,-1.20987 -5.67689,-2.02415 -1.71682,-1.51576 -5.86604,-2.81356 -13.82311,-4.3236 -6.90584,-1.31055 -12.10825,-2.67534 -16.5,-4.3286 -3.47068,-1.30652 -4.19424,-1.3164 -5.46788,-0.0746 -1.24437,1.21323 -1.2685,1.92547 -0.15849,4.67755 0.72017,1.78553 1.7826,5.04641 2.36096,7.24641 0.57835,2.2 1.66217,4.71043 2.40848,5.57874 0.74631,0.86831 1.35693,2.91581 1.35693,4.55 0,1.63419 0.38762,3.39876 0.86138,3.92126 0.47377,0.5225 1.403,4.55 2.06498,8.95 2.5226,16.76713 5.14098,22.58614 11.07364,24.60964 1.925,0.65658 4.85,2.18314 6.5,3.39236 3.73867,2.73992 19.65204,5.44663 21.75601,3.70049 0.98488,-0.81738 2.37073,-0.73849 5.28927,0.30108 2.1751,0.77475 5.04429,1.4284 6.37598,1.45254 1.33169,0.0241 3.20676,0.75476 4.16681,1.62359 1.33691,1.20989 2.21033,1.33097 3.7309,0.51718 1.44326,-0.7724 4.67423,-0.63782 11.83319,0.49292 5.41631,0.85549 11.87284,1.77126 14.34784,2.03503 2.475,0.26378 5.4,0.90368 6.5,1.42201 1.1,0.51833 6.95,1.06962 13,1.22509 6.05,0.15547 11.56589,0.63654 12.25754,1.06905 1.18107,0.73856 9.83579,1.41215 27.24246,2.12027 13.47042,0.54799 30.37654,1.54086 36.5,2.14359 6.98709,0.68773 25.66423,1.52176 33.24936,1.48475 2.88715,-0.0141 6.26215,0.36301 7.5,0.83799 1.23785,0.47498 4.27564,0.69858 6.75064,0.49688 2.475,-0.2017 8.55,-0.66948 13.5,-1.0395 z m 6.5,-95.91694 c 4.675,-0.20833 9.52173,-0.63476 10.77052,-0.94761 1.24879,-0.31285 3.16129,-0.0921 4.25,0.49057 1.41906,0.75946 2.59387,0.73057 4.14961,-0.10203 1.48204,-0.79316 11.23206,-1.20945 30.75,-1.31291 15.71893,-0.0833 29.02987,-0.42351 29.57987,-0.756 0.55,-0.33248 7.25505,-0.89769 14.90011,-1.25603 7.64507,-0.35834 14.39507,-0.96617 15,-1.35073 0.60494,-0.38455 5.73754,-0.78514 11.40578,-0.89018 5.66825,-0.10504 10.8717,-0.66056 11.56323,-1.23448 0.7009,-0.5817 2.91519,-0.77446 5.00346,-0.43559 2.06036,0.33436 5.40691,0.10929 7.43677,-0.50014 2.02986,-0.60943 8.64065,-1.34397 14.69065,-1.63232 6.05,-0.28835 14.375,-0.76949 18.5,-1.06919 8.78721,-0.63846 26.64889,-1.39072 32.79512,-1.3812 2.36232,0.004 5.73732,-0.44067 7.5,-0.98739 5.68815,-1.76426 16.90525,-3.14973 29.58611,-3.65431 6.80968,-0.27096 12.82564,-0.76731 13.3688,-1.10301 0.54317,-0.33569 3.97162,-0.73414 7.61877,-0.88543 16.61037,-0.68904 26.82958,-1.50984 29.1312,-2.33979 2.33752,-0.84289 14.06727,-2.75574 22,-3.58767 1.925,-0.20189 9.575,-1.34073 17,-2.53077 7.425,-1.19003 16.12965,-2.57677 19.34366,-3.08162 3.21401,-0.50486 6.3268,-1.21652 6.9173,-1.58147 1.43765,-0.88852 14.23669,-2.47133 19.23904,-2.37923 2.2,0.0405 5.93077,-0.653 8.29061,-1.54114 2.48958,-0.93696 5.37232,-1.34329 6.86759,-0.968 1.69862,0.42633 3.17102,0.10919 4.31979,-0.93043 1.10866,-1.00332 4.24969,-1.72603 8.63241,-1.9862 3.78928,-0.22494 8.4646,-0.92847 10.3896,-1.5634 1.925,-0.63492 4.625,-1.30987 6,-1.49987 1.375,-0.19001 5.2,-0.82253 8.5,-1.4056 3.3,-0.58308 7.69847,-1.34692 9.77438,-1.69743 2.07591,-0.35052 4.01497,-1.02658 4.30902,-1.50236 0.29405,-0.47578 1.47206,-0.86506 2.6178,-0.86506 2.48489,0 15.56721,-3.6475 18.03523,-5.02842 0.95504,-0.53437 2.99739,-0.97158 4.53856,-0.97158 1.54117,0 4.58478,-0.9159 6.76357,-2.03533 2.17879,-1.11943 5.98644,-2.50702 8.46144,-3.08353 2.475,-0.57651 5.4,-1.39038 6.5,-1.80859 4.81306,-1.8299 12.39131,-4.07255 13.76177,-4.07255 0.82134,0 2.05354,-0.675 2.73823,-1.5 0.68469,-0.825 2.03469,-1.5 3,-1.5 0.96531,0 2.25487,-0.60217 2.86568,-1.33815 0.61081,-0.73599 2.87462,-1.86668 5.03067,-2.51265 5.19006,-1.55498 16.10365,-13.5541 16.10365,-17.70543 0,-5.40682 -3.13626,-10.26547 -7.79717,-12.07927 -2.36344,-0.91973 -4.74177,-2.503 -5.28518,-3.51837 -0.54341,-1.01537 -1.55976,-1.84613 -2.25855,-1.84613 -0.6988,0 -2.79539,-1.125 -4.6591,-2.5 -1.86371,-1.375 -4.16661,-2.5 -5.11755,-2.5 -0.95095,0 -3.06599,-1.125 -4.70008,-2.5 -1.6341,-1.375 -3.66706,-2.5 -4.51771,-2.5 -0.85064,0 -1.82896,-0.45682 -2.17402,-1.01515 -1.04534,-1.69139 -12.27955,-6.03364 -19.45782,-7.52083 -1.90694,-0.39508 -4.15694,-1.05079 -5,-1.45713 -3.23798,-1.56067 -8.71345,-3.24508 -13.03908,-4.0112 -6.69768,-1.18623 -15.87572,-3.99571 -16.53427,-5.06128 -0.31763,-0.51392 -3.06901,-0.93441 -6.11419,-0.93441 -3.04518,0 -6.73113,-0.62444 -8.19099,-1.38764 -3.13953,-1.64132 -13.23365,-3.61236 -18.49967,-3.61236 -2.04874,0 -4.75126,-0.67244 -6.0056,-1.494314 -1.33147,-0.87242 -5.62498,-1.69161 -10.31653,-1.96838 -4.41976,-0.26073 -9.11515,-0.8777 -10.43421,-1.37103 -1.31905,-0.49334 -3.23919,-0.59545 -4.26698,-0.22691 -1.02778,0.36854 -4.40278,-0.18573 -7.5,-1.23172 -3.09721,-1.04599 -7.4313,-2.02502 -9.6313,-2.17563 -2.2,-0.15061 -4.225,-0.38201 -4.5,-0.51423 -0.275,-0.13222 -2.075,-0.33192 -4,-0.44377 -1.925,-0.11186 -11.15,-0.91491 -20.5,-1.78456 -9.35,-0.86965 -18.125,-1.60839 -19.5,-1.64164 -1.375,-0.0333 -7.225,-0.70837 -13,-1.50026 -5.775,-0.79188 -19.05,-1.72588 -29.5,-2.07554 -10.45,-0.34967 -25.75,-1.08013 -34,-1.62325 -28.96087,-1.90658 -91.11724,-0.0741 -105.5,3.11039 -2.475,0.54799 -7.425,1.23414 -11,1.52478 -40.37861,3.28273 -51.50981,4.65236 -69.02396,8.49297 -2.48817,0.54563 -7.43817,1.18469 -11,1.42013 -10.90958,0.72116 -15.87882,1.32484 -17.09558,2.07684 -0.64036,0.395764 -4.36293,1.094874 -8.27238,1.553574 -3.90944,0.4587 -9.13308,1.24505 -11.60808,1.74745 -2.475,0.5024 -8.55,1.64921 -13.5,2.54846 -15.5571,2.82623 -19.82994,3.6938 -26,5.27908 -3.3,0.84787 -8.475,1.63761 -11.5,1.75497 -5.17135,0.20063 -11.29359,1.67342 -15.23643,3.66535 -0.95504,0.48248 -2.84098,0.87724 -4.19098,0.87724 -1.35001,0 -2.74895,0.47635 -3.10877,1.05855 -0.35982,0.5822 -1.84888,0.81656 -3.30902,0.5208 -1.50582,-0.305 -5.03517,0.35244 -8.1548,1.51907 -5.67579,2.12255 -8.51652,2.77603 -23,5.29092 -4.675,0.81176 -10.525,1.94391 -13,2.51589 -2.475,0.57199 -6.975,1.54141 -10,2.15426 -11.90504,2.41193 -18.16983,4.22118 -25.28393,7.3019 -2.08116,0.90124 -4.68449,1.63861 -5.78518,1.63861 -1.10069,0 -2.99792,0.62329 -4.21607,1.38508 -1.21815,0.7618 -4.65516,1.68762 -7.63779,2.05739 -2.98264,0.36977 -6.3051,1.14441 -7.38326,1.72142 -1.07816,0.57701 -6.06282,2.1667 -11.07703,3.53264 -5.01421,1.36593 -11.29121,3.56801 -13.9489,4.89349 -2.65769,1.32549 -5.7013,2.40998 -6.76357,2.40998 -1.06227,0 -2.7128,0.38379 -3.66784,0.85286 -4.77211,2.34386 -9.29262,4.15875 -14.73643,5.91636 -6.53637,2.11035 -17.52145,9.40364 -23.69354,15.73078 -7.5202,7.7091 -8.30409,8.70171 -8.00359,10.13456 0.16658,0.79426 -1.07092,3.17867 -2.75,5.29868 -3.40288,4.2965 -3.77289,6.22431 -1.54887,8.07008 0.8272,0.68651 1.86796,2.65411 2.31281,4.37244 0.44484,1.71833 1.80991,3.62415 3.03349,4.23514 1.22357,0.611 3.24931,2.0735 4.50164,3.25 1.25233,1.17651 2.95702,2.1391 3.7882,2.1391 0.83118,0 2.51707,1.07066 3.74642,2.37924 1.52248,1.62061 3.86123,2.59495 7.33485,3.05574 2.80481,0.37207 5.97908,1.29247 7.05393,2.04532 1.07484,0.75285 2.57381,1.13108 3.33103,0.84051 0.75723,-0.29058 1.65371,0.19337 1.99219,1.07544 0.33848,0.88206 1.44346,1.60375 2.45551,1.60375 1.01206,0 4.00141,1.15447 6.64302,2.56548 3.1106,1.66153 5.72846,2.38372 7.42968,2.04965 1.48612,-0.29184 3.44019,0.10015 4.5,0.90271 1.03027,0.78021 3.32239,1.43286 5.09359,1.45036 1.77121,0.0175 5.65551,1.14566 8.63179,2.50704 4.36738,1.99768 7.70118,2.60095 17.27964,3.12682 24.47457,1.34369 32.15719,1.83391 45.86821,2.92679 18.52506,1.47659 61.66407,1.73947 65.1943,0.39728 1.36044,-0.51724 2.99827,-0.59972 3.63962,-0.18328 0.64134,0.41643 4.76608,1.2665 9.16608,1.88905 7.21814,1.02127 18.86817,0.97837 44.5,-0.16388 z M 250.55712,228.93027 c -3.41997,-1.19971 -6.53247,-2.49563 -6.91666,-2.87982 -0.3842,-0.38419 -1.88353,-0.69853 -3.33187,-0.69853 -1.44833,0 -3.06083,-0.36787 -3.58333,-0.81749 -0.5225,-0.44961 -3.425,-1.39557 -6.45,-2.10211 -9.24161,-2.15856 -14.01153,-3.99225 -18.6038,-7.15182 -2.41791,-1.66356 -4.3962,-3.61942 -4.3962,-4.34635 0,-0.72693 -0.9,-4.13893 -2,-7.58223 -2.19837,-6.88148 -2.6264,-14.9736 -0.88418,-16.71582 0.61369,-0.61369 1.62619,-2.09065 2.25,-3.28213 0.6238,-1.19147 2.70918,-2.97415 4.63418,-3.96151 10.79064,-5.53464 13.86399,-6.8391 17.35613,-7.36668 2.12088,-0.32041 5.68105,-1.53377 7.91151,-2.69635 2.65634,-1.38455 6.5008,-2.24754 11.14387,-2.50153 3.89867,-0.21326 7.98849,-0.44271 9.08849,-0.50988 1.1,-0.0672 4.95371,0.19287 8.56381,0.57785 5.13215,0.5473 7.24792,0.34621 9.70034,-0.92199 1.72509,-0.89208 4.1004,-1.62196 5.27846,-1.62196 1.17806,0 3.28232,-0.89703 4.67612,-1.99339 2.17394,-1.71003 3.97327,-1.98033 12.65773,-1.90149 7.14679,0.0649 11.44673,-0.39578 14.62354,-1.56666 2.475,-0.91221 7.59743,-2.5746 11.38317,-3.6942 3.78574,-1.11959 8.28574,-2.89089 10,-3.93621 1.93169,-1.1779 5.01803,-1.91409 8.11683,-1.93612 2.79571,-0.0199 5.85576,-0.6828 6.94113,-1.50373 1.06762,-0.80751 3.37502,-1.4682 5.12755,-1.4682 1.75254,0 3.74663,-0.675 4.43132,-1.5 0.68469,-0.825 1.98726,-1.5 2.8946,-1.5 0.90734,0 3.35017,-1.40166 5.42851,-3.11481 3.04997,-2.51404 4.36841,-2.99689 6.83572,-2.50342 1.68131,0.33626 5.37088,-0.0223 8.19904,-0.79673 2.82817,-0.77446 7.84213,-1.32016 11.14213,-1.21267 3.3,0.1075 6.9,-0.32941 8,-0.97091 1.91757,-1.11828 8.34405,-1.90868 24.45063,-3.00722 4.09784,-0.27949 10.17284,-1.43345 13.5,-2.56435 3.76624,-1.28016 9.2574,-2.15893 14.54937,-2.3284 5.14346,-0.16471 10.18009,-0.95341 12.75461,-1.99727 2.82879,-1.14696 5.42131,-1.5062 7.73599,-1.07196 1.98819,0.37299 4.3854,0.16928 5.58914,-0.47493 1.15927,-0.62043 4.42807,-1.27737 7.26401,-1.45988 13.33552,-0.85822 19.54692,-1.81425 24.15625,-3.71805 3.31227,-1.36807 7.60528,-2.13549 12.71829,-2.27352 4.24506,-0.1146 8.29506,-0.68082 9,-1.25828 0.70494,-0.57745 3.75671,-1.26381 6.78171,-1.52524 3.025,-0.26143 7.3,-1.0416 9.5,-1.73372 5.5473,-1.74518 8.83021,-1.90499 53,-2.58004 21.45,-0.32783 41.7,-0.64628 45,-0.70768 5.07576,-0.0944 14.68337,0.36626 38,1.82216 2.2,0.13737 6.88642,0.72715 10.41427,1.31061 3.69607,0.61128 7.09721,0.69535 8.02583,0.19837 0.88635,-0.47436 2.27493,-0.52632 3.08572,-0.11547 0.8108,0.41085 5.52418,0.43621 10.47418,0.0564 4.9516,-0.37997 9.51308,-0.29006 10.14063,0.19988 0.62735,0.48979 2.42735,0.88533 4,0.87899 1.57265,-0.006 3.75937,0.004 4.85937,0.0223 41.02881,0.69395 45.5,0.61242 45.5,-0.82964 0,-1.13757 0.73749,-1.31206 3.25,-0.76896 1.7875,0.38639 5.275,0.89587 7.75,1.13218 2.475,0.23631 7.65,0.79879 11.5,1.24997 3.96502,0.46465 7.50229,0.43639 8.1585,-0.0652 0.72453,-0.5538 3.14941,0.075 6.4733,1.67844 4.42317,2.13381 6.57749,2.53371 12.8415,2.38372 9.96129,-0.23852 16.44884,0.81443 22.5267,3.65614 2.75,1.28577 6.19987,2.59597 7.66639,2.91155 3.82587,0.82331 10.19523,7.34607 12.69786,13.00368 l 2.14765,4.85511 -3.02252,6.39718 c -1.66239,3.51845 -3.80257,6.63524 -4.75595,6.92621 -3.21915,0.98246 -12.19401,5.52269 -12.77491,6.4626 -0.3171,0.51308 -2.0125,0.93065 -3.76754,0.92793 -1.75504,-0.003 -5.21598,0.6279 -7.69098,1.40137 -2.475,0.77347 -7.2,2.07046 -10.5,2.88219 -5.81687,1.43082 -9.18945,2.52694 -16.5,5.36261 -3.42451,1.32833 -16.48005,3.34235 -24.56736,3.78991 -2.23705,0.1238 -4.6744,0.60025 -5.41633,1.05879 -0.74193,0.45854 -5.33707,0.74569 -10.21143,0.63812 -6.65459,-0.14685 -10.66147,0.34583 -16.08367,1.97764 -4.31043,1.29722 -10.30003,2.23175 -14.85928,2.31843 -4.26458,0.0811 -8.27817,0.67645 -9.08736,1.34801 -0.8172,0.67822 -7.299,1.61985 -14.86193,2.15903 -7.37695,0.52592 -15.88764,1.42391 -18.91264,1.99553 -3.025,0.57162 -9.1,1.31949 -13.5,1.66194 -4.4,0.34244 -9.96679,1.26318 -12.37065,2.0461 -2.40385,0.78291 -5.17351,1.16865 -6.15479,0.85721 -0.98128,-0.31145 -4.63949,-0.0423 -8.12935,0.59817 -3.48987,0.64044 -8.37021,1.30181 -10.84521,1.4697 -16.12839,1.09409 -30.27001,2.49336 -35,3.46315 -3.025,0.62021 -10.15645,1.49772 -15.84767,1.95003 -5.69122,0.4523 -10.84372,1.31841 -11.45,1.92469 -0.65471,0.65471 -5.18327,1.10824 -11.15233,1.11688 -6.08842,0.009 -11.66418,0.57711 -14.14497,1.44167 -2.25223,0.78491 -9.67723,1.66109 -16.5,1.94707 -6.82277,0.28597 -13.43233,0.81858 -14.68791,1.18356 -1.53654,0.44666 -2.94596,0.0635 -4.31105,-1.17186 -1.70891,-1.54654 -2.16687,-1.61104 -2.90931,-0.40975 -0.48462,0.78414 -2.36965,1.50208 -4.18895,1.59542 -4.86359,0.24954 -25.06277,2.40864 -26.80781,2.8655 -0.825,0.21599 -10.27087,0.69394 -20.99082,1.06212 -12.21636,0.41958 -20.4273,1.13364 -22,1.91323 -1.65841,0.82208 -8.20476,1.29394 -19.3072,1.39166 -10.78827,0.095 -17.58581,0.57258 -19,1.335 -1.32814,0.71604 -5.59863,1.09185 -10.76119,0.94699 -9.76647,-0.27402 -21.18019,1.39954 -25.12521,3.68406 -2.21768,1.28424 -2.95663,1.32861 -4.25,0.2552 -1.28166,-1.06368 -1.84854,-1.06447 -3.12586,-0.004 -1.08578,0.90112 -6.48371,1.417 -17.75,1.69638 -12.26803,0.30422 -17.64312,0.86197 -22.18972,2.30253 -3.91695,1.24106 -10.06229,2.05232 -17.70099,2.33675 -6.43554,0.23963 -12.23576,0.7662 -12.88938,1.17016 -0.65361,0.40396 -4.16317,0.58155 -7.79901,0.39465 -12.35712,-0.6352 -19.80271,-0.16109 -22.93889,1.46069 -4.1302,2.13582 -11.33241,1.81827 -18.88987,-0.83284 z m 28.91549,-12.93774 c 1.47299,0.64584 3.56372,0.67691 5.80265,0.0862 1.925,-0.50786 5.3563,-1.00242 7.62511,-1.09902 2.26881,-0.0966 4.76804,-0.70921 5.55384,-1.36137 0.78581,-0.65216 4.10451,-1.41439 7.37489,-1.69383 3.27039,-0.27945 7.35698,-0.7911 9.08132,-1.137 1.72434,-0.3459 4.04623,-0.14132 5.15977,0.45463 1.43393,0.76741 4.31201,0.78326 9.86484,0.0543 4.31213,-0.56608 9.96931,-1.20342 12.57152,-1.41631 2.6022,-0.21289 5.09234,-0.61022 5.53364,-0.88296 0.78672,-0.48622 17.35613,-1.81959 26.23507,-2.11119 2.475,-0.0813 5.175,-0.43117 6,-0.77754 2.1776,-0.91425 9.85511,-1.86573 14.5968,-1.80901 2.25324,0.0269 6.26235,-0.60272 8.90913,-1.39929 2.79028,-0.83975 5.48078,-1.10589 6.4032,-0.6334 0.87498,0.44819 2.1685,0.60816 2.87449,0.35548 0.70599,-0.25268 1.93941,0.0848 2.74092,0.75004 1.6964,1.40788 10.14408,0.47714 12.37964,-1.36396 0.7723,-0.63602 3.6973,-1.26011 6.5,-1.38685 2.8027,-0.12674 7.57082,-0.43965 10.59582,-0.69536 3.025,-0.25571 6.69129,-0.004 8.14731,0.55922 1.98201,0.76677 3.36422,0.66024 5.5,-0.4239 4.04955,-2.05558 25.37543,-4.09457 38.60269,-3.69084 4.48786,0.13698 14.27852,-1.2595 15.44301,-2.20269 0.68733,-0.55671 5.08453,-0.73878 10.37396,-0.42956 7.21665,0.4219 9.83654,0.19771 12.24519,-1.04786 2.3666,-1.22381 3.47637,-1.32722 4.87432,-0.45419 1.91758,1.19755 19.25762,-0.21347 23.31352,-1.8971 1.1,-0.45662 6.9036,-1.09031 12.8969,-1.40822 5.99329,-0.3179 11.50691,-1.08426 12.25248,-1.70303 0.77835,-0.64598 2.69294,-0.85757 4.49626,-0.4969 1.9263,0.38526 3.72502,0.1434 4.65193,-0.6255 0.99588,-0.82612 5.12456,-1.26384 12.10684,-1.28356 6.04092,-0.0171 11.47387,-0.52192 12.63874,-1.17447 1.12373,-0.62951 6.52373,-1.42398 12,-1.76548 13.92821,-0.86859 26.70008,-2.64098 28.36044,-3.93566 1.46461,-1.14204 4.90764,-1.43188 19.09641,-1.60754 6.11239,-0.0757 9.20224,-0.57183 11,-1.76633 1.375,-0.9136 5.65,-2.01314 9.5,-2.44341 3.85,-0.43028 9.925,-1.2288 13.5,-1.77448 5.1751,-0.78993 19.10138,-1.75455 31,-2.14725 0.825,-0.0272 2.5125,0.27164 3.75,0.66415 1.84944,0.58661 2.25,0.33685 2.25,-1.40297 0,-2.46695 0.77225,-2.60372 3.41403,-0.60464 1.70096,1.28715 2.29241,1.21452 5.31316,-0.6524 2.40064,-1.48368 4.37404,-1.94257 6.71798,-1.5622 1.89994,0.30832 3.81363,0.0438 4.47611,-0.61867 0.70758,-0.70758 5.12486,-1.20385 11.36799,-1.27718 12.04815,-0.14151 20.02287,-1.46906 22.54703,-3.75339 2.17051,-1.96428 3.53042,-2.06059 6.13432,-0.43442 1.63445,1.02072 2.97031,0.70269 8.40087,-2 3.55155,-1.76755 6.88519,-3.21373 7.40808,-3.21373 0.52289,0 2.0239,-0.83213 3.33557,-1.84917 1.31167,-1.01704 4.38385,-2.16119 6.82705,-2.54255 5.22872,-0.81615 14.16377,-3.5437 15.48068,-4.7257 0.55945,-0.50213 0.46945,-1.82351 -0.22856,-3.35545 -0.89281,-1.95948 -1.89246,-2.5271 -4.45063,-2.5271 -2.06171,0 -3.94152,-0.75017 -5.01165,-2 -1.28389,-1.49947 -2.94994,-2 -6.65714,-2 -2.71958,0 -6.18744,-0.47249 -7.70636,-1.04998 -1.51892,-0.5775 -6.01069,-1.16626 -9.98172,-1.30837 -3.97104,-0.1421 -7.82008,-0.73256 -8.55344,-1.31212 -2.0552,-1.62421 -6.19017,-2.34508 -7.7878,-1.3577 -0.88744,0.54847 -2.224,0.43685 -3.49169,-0.29161 -1.12963,-0.64912 -4.75388,-1.28034 -8.05388,-1.40271 -3.3,-0.12236 -7.575,-0.31723 -9.5,-0.43304 -1.925,-0.11581 -5.75,-0.1123 -8.5,0.008 -2.75,0.1201 -5.9,0.22262 -7,0.22785 -1.1,0.005 -4.925,0.12454 -8.5,0.26516 -3.575,0.14061 -11.9,-0.13029 -18.5,-0.602 -6.6,-0.47172 -20.27754,-1.07591 -30.39454,-1.34264 -10.117,-0.26674 -19.117,-0.86374 -20,-1.32667 -2.85751,-1.49812 -9.25729,-2.10474 -27.60546,-2.61667 -44.64063,-1.24552 -110.05949,0.16622 -114.3602,2.46789 -1.10457,0.59115 -3.14763,1.07482 -4.54013,1.07482 -1.3925,0 -4.00958,0.66776 -5.81574,1.4839 -3.51316,1.58748 -24.01654,4.73149 -32.28393,4.95045 -2.75,0.0728 -5.48568,0.43398 -6.0793,0.80256 -0.59361,0.36857 -7.11861,1.37533 -14.5,2.23726 -7.38138,0.86192 -15.4457,2.05673 -17.9207,2.65513 -2.475,0.59839 -6.975,1.46857 -10,1.93371 -3.025,0.46515 -8.425,1.31287 -12,1.88382 -3.575,0.57096 -10.325,1.53572 -15,2.14391 -4.675,0.6082 -10.975,1.5775 -14,2.154 -3.025,0.5765 -8.875,1.35231 -13,1.72402 -4.125,0.3717 -8.29323,1.03114 -9.26273,1.46541 -1.05852,0.47414 -2.3644,0.29025 -3.26876,-0.46031 -1.22262,-1.01468 -1.85293,-0.93594 -3.34948,0.41842 -2.58257,2.33719 -7.53111,3.81268 -21.75047,6.48524 -2.82229,0.53046 -7.09729,1.85047 -9.5,2.93336 -3.94995,1.78021 -9.91882,3.81825 -18.43956,6.29608 -1.68905,0.49117 -4.16405,0.90735 -5.5,0.92484 -1.33595,0.0175 -3.30251,0.6925 -4.37013,1.5 -1.06762,0.80751 -3.99262,1.48415 -6.5,1.50364 -2.50738,0.0195 -5.68387,0.67854 -7.05887,1.46456 -1.375,0.78602 -3.8725,1.44508 -5.55,1.46456 -1.6775,0.0195 -3.4775,0.44141 -4,0.93759 -1.74734,1.65933 -10.88104,4.4191 -17.45,5.27256 -6.2295,0.80936 -29.02069,3.16638 -43.27514,4.47543 -3.72632,0.34221 -7.01538,1.01092 -7.30902,1.48603 -0.29363,0.4751 -1.29482,0.86634 -2.22486,0.86941 -3.59676,0.0119 -9.54778,2.26031 -11.71292,4.42545 -1.9262,1.9262 -2.18821,3.00233 -1.74514,7.16773 0.6128,5.76114 2.30463,8.04553 6.62077,8.93969 1.73047,0.3585 4.77215,1.93067 6.7593,3.4937 2.60736,2.05088 3.91634,2.53852 4.70289,1.75197 0.78656,-0.78656 2.53182,-0.49069 6.27037,1.06298 2.85615,1.18696 7.33749,2.1529 9.98809,2.1529 2.64419,0 5.10828,0.48646 5.47574,1.08103 0.36821,0.59577 1.7645,0.80585 3.1106,0.468 1.65073,-0.41431 3.27445,0.0414 5.00898,1.40576 2.43941,1.91885 2.70655,1.93605 5.39576,0.3475 2.14254,-1.26564 3.38819,-1.42624 5.13193,-0.66168 z"
     id="path3046"
     inkscape:connector-curvature="0" />
</svg>
